<svg width="50" height="29" viewBox="0 0 50 29" fill="none" xmlns="http://www.w3.org/2000/svg">
<path d="M22.329 7.86882C20.4411 7.86882 18.5525 7.87617 16.6639 7.86514C15.7862 7.86072 15.2594 7.21329 15.4867 6.42827C15.6 6.03098 15.8649 5.75288 16.2924 5.68519C16.5103 5.65292 16.7305 5.63791 16.9508 5.64031C20.4695 5.63688 23.9885 5.63688 27.5077 5.64031C27.8579 5.64031 28.047 5.5454 28.1846 5.18711C28.9858 3.10427 30.4469 1.61149 32.4518 0.681537C33.1625 0.351933 33.9409 0.190073 34.7325 0.0716213C35.5682 -0.0481551 36.4186 -0.0175072 37.2435 0.162116C38.4545 0.414469 39.6288 0.865468 40.5786 1.70051C41.1561 2.20816 41.6432 2.81734 42.1766 3.37576C42.2867 3.47842 42.4035 3.57377 42.526 3.66122C42.6224 3.53541 42.7468 3.42063 42.8115 3.28085C43.1911 2.50834 43.5649 1.73583 43.9269 0.953019C44.1078 0.56235 44.3028 0.228331 44.7597 0.0767719C45.2342 -0.0814086 45.5822 0.064265 45.9045 0.378419C46.2532 0.719059 46.2974 1.14578 46.1127 1.55558C45.6242 2.64886 45.1003 3.7267 44.5875 4.80895C44.4073 5.19005 44.2131 5.5638 44.035 5.94564C43.9438 6.14207 44.0409 6.26935 44.2226 6.35249L48.3478 8.2433C48.9364 8.51405 49.2447 8.93635 49.2057 9.46681C49.163 10.0613 48.6377 10.6984 47.8409 10.4284C47.1008 10.1783 46.3945 9.82216 45.6808 9.49697C44.8892 9.13573 44.1071 8.75169 43.3162 8.38898C43.1006 8.29039 42.93 8.33894 42.8144 8.58762C42.0478 10.2437 41.2643 11.8932 40.4969 13.5486C39.6832 15.3026 38.8849 17.0632 38.0734 18.8179C37.5099 20.0384 36.9478 21.2605 36.3592 22.4692C36.1164 22.9681 35.6743 23.1939 35.1085 23.1932C31.9571 23.1888 28.806 23.1873 25.6552 23.1888C23.3872 23.1888 21.1187 23.1905 18.8497 23.1939C18.1839 23.1939 17.7572 22.9099 17.4732 22.2838C16.7375 20.6653 15.9436 19.0709 15.1925 17.4582C14.3743 15.7035 13.5842 13.9356 12.7704 12.1787C12.2554 11.0692 11.7206 9.97152 11.1975 8.86425C10.6332 7.67238 10.9525 7.87912 9.58403 7.87029C6.86186 7.85337 4.13968 7.85999 1.4175 7.84601C1.15185 7.8418 0.887999 7.80146 0.633223 7.72609C0.165303 7.59292 -0.0487922 6.93004 0.00932991 6.56291C0.0464595 6.33321 0.157619 6.12193 0.32589 5.96123C0.494161 5.80053 0.710328 5.69921 0.941491 5.67268C1.16106 5.64469 1.38231 5.63191 1.60364 5.63443C4.71796 5.63443 7.83227 5.64914 10.9473 5.62928C12.3275 5.62045 12.3084 5.96256 12.7785 6.87265C13.1773 7.64516 13.5099 8.45225 13.8704 9.24462C14.3059 10.2011 14.737 11.1575 15.1763 12.1139C15.3256 12.4594 15.4977 12.7947 15.6913 13.1175C15.7553 13.2197 15.9547 13.2823 16.0937 13.2845C16.9516 13.2985 17.8102 13.2904 18.6687 13.2896C20.8887 13.2896 23.1081 13.2896 25.327 13.2896C26.9206 13.2896 28.0772 12.5649 28.7283 11.117C29.1749 10.1253 29.0616 9.1269 28.5679 8.16237C28.4391 7.91075 28.2493 7.86808 27.9984 7.86808C26.1098 7.87397 24.222 7.86808 22.3334 7.86808L22.329 7.86882ZM16.8515 15.602C16.9391 15.8316 16.9854 15.9816 17.0516 16.1222C17.752 17.5936 18.476 19.0599 19.1425 20.5497C19.2801 20.8565 19.442 20.9176 19.7098 20.9235C19.8694 20.9235 20.0291 20.9235 20.188 20.9235C24.7985 20.9235 29.4091 20.9235 34.0196 20.9235C34.1663 20.9318 34.3133 20.9167 34.4552 20.8786C34.5648 20.8392 34.656 20.7606 34.7112 20.6579C35.2998 19.4072 35.8641 18.1498 36.449 16.8991C37.3399 14.9928 38.2427 13.0917 39.1388 11.1869C39.8009 9.78906 40.4631 8.38456 41.109 6.97786C41.1826 6.81158 41.2525 6.58645 41.2039 6.42386C40.8361 5.19667 40.1666 4.16666 39.1292 3.38826C37.5415 2.19713 35.7633 1.99627 33.924 2.53262C32.3885 2.98362 31.2467 3.99671 30.5176 5.44093C30.0805 6.30835 30.11 6.28922 30.5499 7.14266C30.8192 7.66502 31.0649 8.23521 31.1466 8.80834C31.2687 9.67355 31.2805 10.5542 31.009 11.4231C30.6321 12.6699 29.844 13.7523 28.7732 14.494C27.7432 15.2231 26.5984 15.5174 25.3447 15.5093C22.6961 15.4909 20.0475 15.5027 17.3989 15.5093C17.2223 15.5093 17.0457 15.5674 16.8515 15.602Z" fill="white"/>
<path d="M22.0312 28.8373C21.1115 28.8999 20.6296 28.1649 20.6428 27.449C20.6568 26.7133 21.1843 26.0511 22.0312 26.0769C22.8522 26.0997 23.4246 26.6456 23.429 27.4674C23.4334 28.2892 22.8669 28.8344 22.0312 28.8373Z" fill="white"/>
<path d="M31.836 28.836C31.0267 28.925 30.4624 28.0944 30.4882 27.447C30.5161 26.7451 31.0399 26.0278 31.9758 26.0638C32.7034 26.091 33.3001 26.8113 33.2898 27.4948C33.2832 28.1187 32.7248 28.953 31.836 28.836Z" fill="white"/>
<path d="M35.6772 5.34576C36.4659 5.34208 37.0751 5.95715 37.0839 6.75247C37.0812 7.12536 36.9327 7.4824 36.67 7.74711C36.4074 8.01182 36.0515 8.16317 35.6787 8.16874C34.9768 8.16874 34.3154 7.65373 34.294 6.77086C34.2867 6.5853 34.3172 6.4002 34.3836 6.22678C34.45 6.05335 34.5509 5.89522 34.6803 5.76196C34.8096 5.62871 34.9646 5.52311 35.136 5.45156C35.3074 5.38002 35.4915 5.34403 35.6772 5.34576Z" fill="white"/>
</svg>
