<svg width="71" height="62" viewBox="0 0 71 62" fill="none" xmlns="http://www.w3.org/2000/svg">
<path d="M11.0251 40.332H13.1345V51.1536C13.1345 52.3547 12.8672 53.3545 12.3325 54.1528C11.7979 54.9512 11.0874 55.5518 10.2012 55.9546C9.32227 56.3501 8.36646 56.5479 7.33374 56.5479C6.24976 56.5479 5.26831 56.3501 4.3894 55.9546C3.51782 55.5518 2.82568 54.9512 2.31299 54.1528C1.80762 53.3545 1.55493 52.3547 1.55493 51.1536V40.332H3.65332V51.1536C3.65332 51.9885 3.80713 52.677 4.11475 53.219C4.42236 53.761 4.85083 54.1638 5.40015 54.4275C5.95679 54.6912 6.60132 54.823 7.33374 54.823C8.07349 54.823 8.71802 54.6912 9.26733 54.4275C9.82397 54.1638 10.2561 53.761 10.5637 53.219C10.8713 52.677 11.0251 51.9885 11.0251 51.1536V40.332ZM18.1882 46.7261V60.8984H16.1448V44.4409H18.0125L18.1882 46.7261ZM26.1973 50.2856V50.5164C26.1973 51.3806 26.0947 52.1826 25.8896 52.9224C25.6846 53.6548 25.3843 54.292 24.9888 54.834C24.6006 55.376 24.1208 55.7971 23.5496 56.0974C22.9783 56.3977 22.3228 56.5479 21.583 56.5479C20.8286 56.5479 20.1621 56.4233 19.5835 56.1743C19.0049 55.9253 18.5142 55.5627 18.1113 55.0867C17.7085 54.6106 17.3862 54.0393 17.1445 53.3728C16.9102 52.7063 16.749 51.9556 16.6611 51.1206V49.8901C16.749 49.0112 16.9138 48.2239 17.1555 47.5281C17.3972 46.8323 17.7158 46.239 18.1113 45.7483C18.5142 45.2502 19.0012 44.873 19.5725 44.6167C20.1438 44.353 20.803 44.2212 21.55 44.2212C22.2971 44.2212 22.96 44.3677 23.5386 44.6606C24.1172 44.9463 24.6042 45.3564 24.9998 45.8911C25.3953 46.4258 25.6919 47.0667 25.8896 47.8137C26.0947 48.5535 26.1973 49.3774 26.1973 50.2856ZM24.1538 50.5164V50.2856C24.1538 49.6924 24.0916 49.1357 23.967 48.6157C23.8425 48.0884 23.6484 47.627 23.3848 47.2314C23.1284 46.8286 22.7988 46.5137 22.396 46.2866C21.9932 46.0522 21.5134 45.9351 20.9568 45.9351C20.4441 45.9351 19.9973 46.0229 19.6165 46.1987C19.2429 46.3745 18.9243 46.6125 18.6606 46.9128C18.397 47.2058 18.1809 47.5427 18.0125 47.9236C17.8513 48.2971 17.7305 48.6853 17.6499 49.0881V51.9336C17.7964 52.4463 18.0015 52.9297 18.2651 53.3838C18.5288 53.8306 18.8804 54.1931 19.3198 54.4714C19.7593 54.7424 20.3123 54.8779 20.9788 54.8779C21.5281 54.8779 22.0005 54.7644 22.396 54.5374C22.7988 54.303 23.1284 53.9844 23.3848 53.5815C23.6484 53.1787 23.8425 52.7173 23.967 52.1973C24.0916 51.6699 24.1538 51.1096 24.1538 50.5164ZM30.9983 39.4531V56.3281H28.9548V39.4531H30.9983ZM33.7229 50.5164V50.2637C33.7229 49.4067 33.8474 48.6121 34.0964 47.8796C34.3455 47.1399 34.7043 46.499 35.1731 45.957C35.6418 45.4077 36.2095 44.9829 36.876 44.6826C37.5425 44.375 38.2896 44.2212 39.1172 44.2212C39.9521 44.2212 40.7029 44.375 41.3694 44.6826C42.0432 44.9829 42.6145 45.4077 43.0833 45.957C43.5593 46.499 43.9219 47.1399 44.1709 47.8796C44.4199 48.6121 44.5444 49.4067 44.5444 50.2637V50.5164C44.5444 51.3733 44.4199 52.168 44.1709 52.9004C43.9219 53.6328 43.5593 54.2737 43.0833 54.823C42.6145 55.365 42.0469 55.7898 41.3804 56.0974C40.7212 56.3977 39.9741 56.5479 39.1392 56.5479C38.3042 56.5479 37.5535 56.3977 36.887 56.0974C36.2205 55.7898 35.6492 55.365 35.1731 54.823C34.7043 54.2737 34.3455 53.6328 34.0964 52.9004C33.8474 52.168 33.7229 51.3733 33.7229 50.5164ZM35.7554 50.2637V50.5164C35.7554 51.1096 35.825 51.6699 35.9641 52.1973C36.1033 52.7173 36.312 53.1787 36.5903 53.5815C36.876 53.9844 37.2312 54.303 37.656 54.5374C38.0808 54.7644 38.5752 54.8779 39.1392 54.8779C39.6958 54.8779 40.1829 54.7644 40.6003 54.5374C41.0251 54.303 41.3767 53.9844 41.655 53.5815C41.9333 53.1787 42.1421 52.7173 42.2812 52.1973C42.4277 51.6699 42.501 51.1096 42.501 50.5164V50.2637C42.501 49.6777 42.4277 49.1248 42.2812 48.6047C42.1421 48.0774 41.9297 47.6123 41.644 47.2095C41.3657 46.7993 41.0142 46.4771 40.5894 46.2427C40.1719 46.0083 39.6812 45.8911 39.1172 45.8911C38.5605 45.8911 38.0698 46.0083 37.645 46.2427C37.2275 46.4771 36.876 46.7993 36.5903 47.2095C36.312 47.6123 36.1033 48.0774 35.9641 48.6047C35.825 49.1248 35.7554 49.6777 35.7554 50.2637ZM54.1025 54.2957V48.1763C54.1025 47.7075 54.0073 47.301 53.8169 46.9568C53.6338 46.6052 53.3555 46.3342 52.9819 46.1438C52.6084 45.9534 52.147 45.8582 51.5977 45.8582C51.085 45.8582 50.6345 45.946 50.2463 46.1218C49.8655 46.2976 49.5652 46.5283 49.3455 46.814C49.1331 47.0996 49.0269 47.4072 49.0269 47.7368H46.9944C46.9944 47.312 47.1042 46.8909 47.324 46.4734C47.5437 46.0559 47.8586 45.6787 48.2688 45.3418C48.6863 44.9976 49.1843 44.7266 49.7629 44.5288C50.3489 44.3237 51.0007 44.2212 51.7185 44.2212C52.5828 44.2212 53.3445 44.3677 54.0037 44.6606C54.6702 44.9536 55.1902 45.3967 55.5637 45.99C55.9446 46.5759 56.135 47.312 56.135 48.1982V53.7354C56.135 54.1309 56.168 54.552 56.2339 54.9988C56.3071 55.4456 56.4133 55.8301 56.5525 56.1523V56.3281H54.4321C54.3296 56.0938 54.249 55.7825 54.1904 55.3943C54.1318 54.9988 54.1025 54.6326 54.1025 54.2957ZM54.4541 49.1211L54.4761 50.5493H52.4216C51.843 50.5493 51.3267 50.5969 50.8726 50.6921C50.4185 50.78 50.0376 50.9155 49.73 51.0986C49.4224 51.2817 49.188 51.5125 49.0269 51.7908C48.8657 52.0618 48.7852 52.3804 48.7852 52.7466C48.7852 53.1201 48.8694 53.4607 49.0378 53.7683C49.2063 54.0759 49.459 54.3213 49.7959 54.5044C50.1401 54.6802 50.5613 54.7681 51.0593 54.7681C51.6819 54.7681 52.2312 54.6362 52.7073 54.3726C53.1833 54.1089 53.5605 53.7866 53.8389 53.4058C54.1245 53.0249 54.2783 52.655 54.3003 52.2961L55.1682 53.2739C55.1169 53.5815 54.9778 53.9221 54.7507 54.2957C54.5237 54.6692 54.2197 55.0281 53.8389 55.3723C53.4653 55.7092 53.0186 55.9912 52.4985 56.2183C51.9858 56.438 51.4072 56.5479 50.7627 56.5479C49.957 56.5479 49.2502 56.3904 48.6423 56.0754C48.0417 55.7605 47.573 55.3394 47.2361 54.812C46.9065 54.2773 46.7417 53.6804 46.7417 53.0212C46.7417 52.384 46.8662 51.8237 47.1152 51.3403C47.3643 50.8496 47.7231 50.4431 48.1919 50.1208C48.6606 49.7913 49.2246 49.5422 49.8838 49.3738C50.543 49.2053 51.2791 49.1211 52.092 49.1211H54.4541ZM66.8247 54.021V39.4531H68.8682V56.3281H67.0005L66.8247 54.021ZM58.8267 50.5164V50.2856C58.8267 49.3774 58.9365 48.5535 59.1562 47.8137C59.3833 47.0667 59.7019 46.4258 60.1121 45.8911C60.5295 45.3564 61.0239 44.9463 61.5952 44.6606C62.1738 44.3677 62.8184 44.2212 63.5288 44.2212C64.2759 44.2212 64.9277 44.353 65.4844 44.6167C66.0483 44.873 66.5244 45.2502 66.9126 45.7483C67.3081 46.239 67.6194 46.8323 67.8464 47.5281C68.0735 48.2239 68.231 49.0112 68.3188 49.8901V50.9009C68.2383 51.7725 68.0808 52.5562 67.8464 53.252C67.6194 53.9478 67.3081 54.541 66.9126 55.0317C66.5244 55.5225 66.0483 55.8997 65.4844 56.1633C64.9204 56.4197 64.2612 56.5479 63.5068 56.5479C62.811 56.5479 62.1738 56.3977 61.5952 56.0974C61.0239 55.7971 60.5295 55.376 60.1121 54.834C59.7019 54.292 59.3833 53.6548 59.1562 52.9224C58.9365 52.1826 58.8267 51.3806 58.8267 50.5164ZM60.8701 50.2856V50.5164C60.8701 51.1096 60.9287 51.6663 61.0459 52.1863C61.1704 52.7063 61.3608 53.1641 61.6172 53.5596C61.8735 53.9551 62.1995 54.2664 62.595 54.4934C62.9905 54.7131 63.4629 54.823 64.0122 54.823C64.686 54.823 65.239 54.6802 65.6711 54.3945C66.1106 54.1089 66.4622 53.7317 66.7258 53.2629C66.9895 52.7942 67.1946 52.2852 67.3411 51.7358V49.0881C67.2532 48.6853 67.125 48.2971 66.9565 47.9236C66.7954 47.5427 66.583 47.2058 66.3193 46.9128C66.063 46.6125 65.7444 46.3745 65.3635 46.1987C64.99 46.0229 64.5469 45.9351 64.0342 45.9351C63.4775 45.9351 62.9978 46.0522 62.595 46.2866C62.1995 46.5137 61.8735 46.8286 61.6172 47.2314C61.3608 47.627 61.1704 48.0884 61.0459 48.6157C60.9287 49.1357 60.8701 49.6924 60.8701 50.2856Z" fill="#1E1E1E"/>
<path d="M45.5051 15.794C44.5685 10.3671 40.3955 6.29297 35.3823 6.29297C31.4021 6.29297 27.9452 8.87271 26.2237 12.6479C22.0782 13.1513 18.8555 17.1625 18.8555 22.0231C18.8555 27.2298 22.5602 31.4612 27.1189 31.4612H45.023C48.8242 31.4612 51.9092 27.9376 51.9092 23.5961C51.9092 19.4434 49.0859 16.0771 45.5051 15.794ZM38.1368 20.4501V26.7421H32.6279V20.4501H28.4961L35.3823 12.585L42.2685 20.4501H38.1368Z" fill="#1E1E1E"/>
</svg>
