<svg width="25" height="25" viewBox="0 0 25 25" fill="none" xmlns="http://www.w3.org/2000/svg">
<path fill-rule="evenodd" clip-rule="evenodd" d="M5 23.2812C4.57622 23.2815 4.15656 23.1981 3.76501 23.0361C3.37345 22.874 3.01767 22.6363 2.71802 22.3367C2.41836 22.037 2.1807 21.6812 2.01863 21.2897C1.85655 20.8981 1.77323 20.4785 1.77344 20.0547V5.05469C1.77323 4.63091 1.85655 4.21125 2.01863 3.81969C2.1807 3.42814 2.41836 3.07236 2.71802 2.77271C3.01767 2.47305 3.37345 2.23539 3.76501 2.07331C4.15656 1.91124 4.57622 1.82792 5 1.82813H20C20.4238 1.82792 20.8434 1.91124 21.235 2.07331C21.6266 2.23539 21.9823 2.47305 22.282 2.77271C22.5816 3.07236 22.8193 3.42814 22.9814 3.81969C23.1435 4.21125 23.2268 4.63091 23.2266 5.05469V20.0547C23.2268 20.4785 23.1435 20.8981 22.9814 21.2897C22.8193 21.6812 22.5816 22.037 22.282 22.3367C21.9823 22.6363 21.6266 22.874 21.235 23.0361C20.8434 23.1981 20.4238 23.2815 20 23.2812H5ZM18.1094 14.2188H15.8438V21.7188H20.0156C20.2344 21.7188 20.451 21.6757 20.653 21.592C20.8551 21.5083 21.0387 21.3856 21.1934 21.2309C21.3481 21.0762 21.4708 20.8926 21.5545 20.6905C21.6382 20.4885 21.6813 20.2719 21.6813 20.0531V5.05313C21.6813 4.61137 21.5058 4.18772 21.1934 3.87535C20.881 3.56299 20.4574 3.3875 20.0156 3.3875H5.01563C4.57387 3.3875 4.15022 3.56299 3.83785 3.87535C3.52549 4.18772 3.35 4.61137 3.35 5.05313V20.0531C3.35 20.4949 3.52549 20.9185 3.83785 21.2309C4.15022 21.5433 4.57387 21.7188 5.01563 21.7188H13.3438V14.2188H10.8438V11.7188H13.3438V10.3766C13.3438 7.82969 14.5828 6.72031 16.6875 6.72031C17.6797 6.72031 18.2125 6.79219 18.4688 6.82813H18.4844V9.21875H17.0438C16.3172 9.21875 15.9734 9.53125 15.8703 10.1563C15.8452 10.3201 15.8332 10.4858 15.8344 10.6516V11.7188H18.4594L18.1031 14.2188H18.1094Z" fill="#ACADAE"/>
</svg>
