<svg width="20" height="20" viewBox="0 0 20 20" fill="none" xmlns="http://www.w3.org/2000/svg">
<g clip-path="url(#clip0_1127_8375)">
<path d="M15.2346 7.43837C15.2346 8.03914 15.2346 8.60599 15.2346 9.18153C15.8117 9.30421 16.34 9.52036 16.8194 9.85625C18.5428 11.0639 19.0809 13.4091 18.0343 15.2349C17.9096 15.4523 17.9335 15.582 18.0826 15.7633C18.5915 16.382 19.0897 17.0099 19.5797 17.6436C20.0173 18.2095 20.0118 18.9553 19.5857 19.4805C18.9931 20.2109 17.8807 20.1648 17.311 19.3816C16.8149 18.6995 16.3237 18.0139 15.835 17.3265C15.761 17.2225 15.6922 17.1545 15.5616 17.2246C15.4328 17.2937 15.2373 17.2164 15.2069 17.4843C15.0912 18.5038 14.3163 19.1883 13.2904 19.1895C9.50072 19.194 5.71109 19.1948 1.92142 19.1891C0.792869 19.1874 0.00163343 18.3584 0.00108502 17.1988C-0.000686784 13.5288 0.000410045 9.85861 0.000410045 6.18849C0.000410045 4.87373 -0.000728969 3.55893 0.000789717 2.24417C0.0023084 0.896674 0.887492 0.00229419 2.23026 0.0016614C7.0183 -0.000616628 11.8063 -0.00049007 16.5944 0.0016614C17.6945 0.00216763 18.5348 0.625166 18.7838 1.62328C18.8292 1.80519 18.8468 1.99831 18.8476 2.18638C18.8529 3.49409 18.8521 4.80185 18.8498 6.10961C18.8484 6.90654 18.3267 7.43162 17.5298 7.43715C16.8549 7.44183 16.1799 7.43829 15.5049 7.43837C15.4214 7.43841 15.338 7.43837 15.2346 7.43837ZM15.1901 0.626137C15.095 0.621032 15.0279 0.614283 14.9608 0.61424C10.7221 0.613776 6.4833 0.612764 2.24456 0.614704C1.24232 0.615168 0.613664 1.24694 0.613453 2.25029C0.612272 7.2412 0.612398 12.2321 0.613369 17.223C0.613537 18.1024 1.1196 18.6099 2.00229 18.6103C5.74193 18.6122 9.48157 18.6118 13.2212 18.6087C13.381 18.6086 13.547 18.5946 13.6993 18.5502C14.2313 18.3951 14.6375 17.8451 14.5749 17.3645C13.4477 17.3838 12.4529 17.0207 11.6204 16.2528C10.7786 15.4763 10.333 14.5036 10.2965 13.3615C10.2641 12.3479 10.5763 11.4321 11.2152 10.6436C12.0803 9.57605 13.2223 9.07619 14.6098 9.07999C14.6098 8.96946 14.6098 8.87956 14.6098 8.78967C14.6098 6.59647 14.6114 4.40328 14.6088 2.21013C14.6082 1.67082 14.7459 1.18316 15.0993 0.765982C15.1289 0.731053 15.1498 0.688825 15.1901 0.626137ZM14.4755 16.7478C16.5108 16.7326 17.9445 15.2771 17.9338 13.2369C17.9229 11.1615 16.429 9.70881 14.3235 9.7264C12.4369 9.74218 10.8995 11.3411 10.9141 13.2724C10.9287 15.1938 12.536 16.7623 14.4755 16.7478Z" fill="black"/>
<path d="M7.6344 3.77256C6.13035 3.77256 4.62626 3.77281 3.12221 3.77239C2.62328 3.77227 2.41594 3.56556 2.41472 3.0692C2.41425 2.88645 2.41067 2.70362 2.4159 2.521C2.42653 2.14845 2.63944 1.93272 3.01342 1.92896C3.59672 1.9231 4.1801 1.92715 4.76345 1.9271C7.20929 1.92706 9.65518 1.92698 12.101 1.92719C12.6603 1.92723 12.8311 2.09859 12.8316 2.6578C12.8318 2.81241 12.8326 2.96707 12.8314 3.12168C12.828 3.5648 12.6282 3.76952 12.1888 3.77168C11.5984 3.7745 11.008 3.77252 10.4176 3.77256C9.48989 3.7726 8.56215 3.77256 7.6344 3.77256Z" fill="black"/>
<path d="M3.52326 17.2077C3.22826 17.2076 2.93317 17.2127 2.63829 17.2065C2.16978 17.1965 1.90325 16.934 1.8981 16.4708C1.89198 15.923 1.89215 15.3751 1.89793 14.8273C1.90274 14.3692 2.17906 14.0912 2.63618 14.0866C3.23315 14.0804 3.83025 14.0806 4.42722 14.0865C4.87713 14.0909 5.17298 14.3951 5.17618 14.8495C5.17994 15.3833 5.17994 15.9172 5.17623 16.4509C5.17298 16.9193 4.89831 17.1972 4.42929 17.2066C4.1274 17.2127 3.82531 17.2077 3.52326 17.2077ZM3.27745 15.7012C3.17392 15.6044 3.11077 15.5394 3.04146 15.4818C2.91655 15.378 2.77632 15.368 2.66373 15.4836C2.55054 15.5999 2.56628 15.7421 2.67377 15.8612C2.78155 15.9807 2.8968 16.0937 3.01328 16.2048C3.17979 16.3638 3.32469 16.367 3.49027 16.2067C3.7317 15.9729 3.96832 15.734 4.20296 15.4933C4.34196 15.3508 4.35664 15.1668 4.2346 15.0682C4.08779 14.9497 3.94841 14.9877 3.82628 15.117C3.64855 15.3051 3.47184 15.4942 3.27745 15.7012Z" fill="black"/>
<path d="M3.53127 8.42849C3.22226 8.42833 2.91312 8.4328 2.60419 8.42723C2.19288 8.4198 1.90965 8.15458 1.90096 7.74306C1.88864 7.16039 1.88822 6.57705 1.90129 5.99442C1.91045 5.58636 2.19545 5.31595 2.60769 5.31076C3.22563 5.30295 3.84386 5.30228 4.4618 5.31105C4.86568 5.31683 5.16837 5.61968 5.17453 6.02239C5.18322 6.59114 5.18364 7.16022 5.17419 7.72897C5.16736 8.14113 4.87332 8.41786 4.4583 8.42837C4.44425 8.42871 4.4302 8.42866 4.41615 8.42866C4.12123 8.42866 3.82623 8.42866 3.53127 8.42849ZM3.28009 6.9231C3.17513 6.82632 3.11502 6.76815 3.05195 6.71335C2.9221 6.6005 2.778 6.5846 2.65937 6.71149C2.54838 6.8302 2.57095 6.97191 2.67857 7.0899C2.77753 7.19844 2.88431 7.29994 2.98893 7.40325C3.18074 7.59271 3.32063 7.59676 3.51089 7.4103C3.74089 7.18482 3.96772 6.95604 4.19308 6.72588C4.33668 6.5792 4.35486 6.41079 4.24623 6.29946C4.13752 6.18801 3.96704 6.19961 3.82163 6.34557C3.63939 6.52849 3.46769 6.72195 3.28009 6.9231Z" fill="black"/>
<path d="M3.52406 9.67793C3.82594 9.67776 4.1279 9.67253 4.42962 9.67903C4.85848 9.68822 5.17107 10.0012 5.17508 10.4287C5.18018 10.9762 5.18056 11.5239 5.17483 12.0713C5.1704 12.4935 4.90459 12.7846 4.48395 12.795C3.85256 12.8106 3.22028 12.8096 2.5888 12.796C2.17002 12.787 1.90632 12.5146 1.89894 12.098C1.8889 11.5295 1.88957 10.9607 1.89847 10.3922C1.90526 9.95767 2.18053 9.69021 2.61846 9.67953C2.92017 9.67219 3.22218 9.67814 3.52406 9.67793ZM3.28693 11.3027C3.17109 11.1939 3.1114 11.1355 3.0493 11.0799C2.92785 10.971 2.78914 10.9524 2.67279 11.0665C2.55016 11.1867 2.56264 11.3333 2.67874 11.4596C2.79243 11.5831 2.91059 11.703 3.03272 11.8182C3.18024 11.9574 3.32789 11.9574 3.47672 11.8127C3.72258 11.5736 3.96241 11.3283 4.20405 11.0848C4.32808 10.9599 4.36672 10.8195 4.2459 10.6746C4.14647 10.5554 3.96798 10.5698 3.82273 10.7168C3.64154 10.9003 3.47381 11.097 3.28693 11.3027Z" fill="black"/>
<path d="M9.96186 6.35105C8.9921 6.35105 8.02233 6.35109 7.05257 6.35101C6.99633 6.35101 6.93981 6.35379 6.88399 6.34894C6.70534 6.33342 6.58979 6.23605 6.58418 6.05689C6.57857 5.87751 6.69466 5.77614 6.86467 5.74117C6.91884 5.73003 6.97672 5.73594 7.03287 5.73594C8.98645 5.73577 10.9401 5.73577 12.8936 5.73581C12.9077 5.73581 12.9217 5.73577 12.9358 5.73585C13.193 5.73796 13.36 5.85942 13.3603 6.0444C13.3606 6.22766 13.192 6.35059 12.9344 6.35075C11.9435 6.35147 10.9527 6.35105 9.96186 6.35105Z" fill="black"/>
<path d="M9.02677 7.99586C8.33834 7.99582 7.64987 7.99498 6.96144 7.99637C6.77612 7.99675 6.62227 7.95165 6.58367 7.74262C6.54942 7.55722 6.6769 7.40277 6.88213 7.38944C7.05708 7.3781 7.2332 7.38476 7.40882 7.38472C8.59606 7.38451 9.78325 7.38459 10.9705 7.38468C11.0337 7.38468 11.0971 7.38223 11.1601 7.38649C11.3582 7.39991 11.4965 7.52815 11.4962 7.695C11.4959 7.8653 11.3628 7.99194 11.1553 7.99354C10.5091 7.99852 9.86277 7.9957 9.21648 7.99591C9.15325 7.99591 9.09001 7.99591 9.02677 7.99586Z" fill="black"/>
<path d="M8.44082 15.1328C7.96319 15.1328 7.48557 15.1339 7.0079 15.1323C6.75394 15.1314 6.61515 15.0204 6.61523 14.8245C6.61532 14.629 6.75487 14.5169 7.00878 14.5165C7.96404 14.5153 8.91933 14.5154 9.87459 14.5164C10.1312 14.5166 10.2911 14.644 10.284 14.8361C10.2771 15.0194 10.124 15.1318 9.8737 15.1324C9.39612 15.1336 8.91845 15.1328 8.44082 15.1328Z" fill="black"/>
<path d="M8.44364 10.7503C7.95192 10.7502 7.4602 10.7522 6.96853 10.7494C6.72583 10.7481 6.61931 10.656 6.61442 10.4572C6.60936 10.2511 6.72275 10.1469 6.97245 10.1463C7.95584 10.1439 8.93928 10.144 9.92267 10.1463C10.1507 10.1468 10.2796 10.2577 10.2842 10.4403C10.289 10.6351 10.1604 10.7482 9.91874 10.7496C9.42707 10.7524 8.93535 10.7504 8.44364 10.7503Z" fill="black"/>
<path d="M7.96981 16.1652C8.32038 16.1652 8.67094 16.1625 9.02146 16.1662C9.25922 16.1687 9.38827 16.2841 9.38544 16.4795C9.38274 16.6662 9.26023 16.7706 9.02619 16.7715C8.33211 16.7739 7.63798 16.7737 6.94386 16.7716C6.71163 16.7709 6.58549 16.667 6.57933 16.4835C6.57283 16.2897 6.70471 16.1687 6.93913 16.1661C7.28269 16.1622 7.62625 16.1651 7.96981 16.1652Z" fill="black"/>
<path d="M7.971 12.4009C7.63394 12.4009 7.29687 12.4037 6.95985 12.3999C6.73361 12.3973 6.58187 12.2695 6.5801 12.0919C6.57828 11.9081 6.7177 11.7951 6.95897 11.7944C7.6401 11.7925 8.32118 11.7925 9.00232 11.7943C9.25678 11.795 9.39152 11.9084 9.3868 12.108C9.38237 12.2969 9.25362 12.3981 9.0032 12.4002C8.65913 12.4031 8.31507 12.401 7.971 12.4009Z" fill="black"/>
<path d="M11.548 13.2113C11.5618 11.6132 12.8847 10.3177 14.4922 10.3282C16.0675 10.3384 17.3419 11.6678 17.3292 13.2876C17.3167 14.8781 16.031 16.1384 14.4347 16.1251C12.8376 16.1117 11.5342 14.7961 11.548 13.2113ZM14.3005 11.7621C14.3039 11.7743 14.3074 11.7865 14.3108 11.7988C14.3529 11.7988 14.3951 11.7974 14.4371 11.799C14.6844 11.8082 14.8969 11.884 14.998 12.1317C15.0934 12.3655 15.0139 12.5652 14.7743 12.7754C14.6269 12.9047 14.4583 13.026 14.3568 13.1872C14.2415 13.3702 14.1722 13.5895 14.1237 13.8023C14.1108 13.8593 14.2342 13.9898 14.3172 14.0159C14.4377 14.0538 14.539 13.9654 14.5433 13.8316C14.5533 13.5216 14.7424 13.3364 14.9698 13.1689C15.0654 13.0985 15.1591 13.0221 15.24 12.9355C15.6442 12.5029 15.5418 11.744 15.0184 11.4874C14.5023 11.2343 13.9724 11.2531 13.4702 11.5591C13.3589 11.6268 13.2852 11.7207 13.3598 11.8566C13.4342 11.9922 13.5417 11.9987 13.6827 11.9463C13.8838 11.8719 14.0941 11.8223 14.3005 11.7621ZM14.3192 14.3595C14.1573 14.3545 14.0175 14.497 14.015 14.6695C14.0125 14.845 14.1245 14.9686 14.292 14.9749C14.4724 14.9818 14.5996 14.8637 14.6063 14.683C14.6128 14.5063 14.487 14.3646 14.3192 14.3595Z" fill="black"/>
</g>
<defs>
<clipPath id="clip0_1127_8375">
<rect width="19.9066" height="20" fill="white"/>
</clipPath>
</defs>
</svg>
