<svg width="20" height="20" viewBox="0 0 20 20" fill="none" xmlns="http://www.w3.org/2000/svg">
<g clip-path="url(#clip0_1127_8363)">
<path d="M3.15767 10.4565C2.85284 10.396 2.61677 10.5394 2.4035 10.8371C1.9421 11.4812 1.01332 11.536 0.419599 10.9881C-0.146642 10.4656 -0.138604 9.52028 0.436549 9.00034C1.02393 8.46931 1.95416 8.52986 2.40275 9.17228C2.62463 9.49005 2.88237 9.58458 3.23442 9.55138C3.49107 9.52714 3.63078 9.40823 3.69438 9.16219C3.83242 8.62819 3.973 8.0948 4.11965 7.56311C4.17129 7.37597 4.14508 7.21399 4.00179 7.08446C3.825 6.92457 3.62278 6.83319 3.3823 6.93384C3.07926 7.06065 2.77613 7.07918 2.46977 6.95205C1.96525 6.74272 1.68314 6.2026 1.79816 5.66951C1.91156 5.1439 2.38878 4.76061 2.91496 4.77245C3.46399 4.78481 3.9253 5.17662 4.0111 5.7177C4.04102 5.90637 4.0937 6.06761 4.26521 6.17551C4.5558 6.35838 4.75915 6.32181 4.99566 6.07198C5.32998 5.71888 5.6726 5.37289 6.02518 5.03809C6.18664 4.8848 6.33796 4.73553 6.27008 4.49819C6.19533 4.23683 6.03531 4.06593 5.73948 4.02024C4.92245 3.89412 4.51321 3.01929 4.9345 2.32497C5.23615 1.82775 5.85363 1.64065 6.38366 1.88585C6.90508 2.12707 7.16456 2.73569 6.96475 3.28118C6.89114 3.48217 6.8496 3.66644 6.96851 3.8645C7.13337 4.13911 7.32305 4.19725 7.63138 4.10394C8.09662 3.96314 8.56689 3.83633 9.04017 3.72563C9.26741 3.67247 9.48623 3.61279 9.52083 3.35706C9.56089 3.06088 9.63175 2.73521 9.30699 2.52653C9.0078 2.33427 8.79348 2.07889 8.69375 1.73356C8.50651 1.08532 8.8314 0.381914 9.4415 0.115C10.0763 -0.162704 10.8204 0.0776059 11.1707 0.673509C11.5159 1.26068 11.3785 2.04123 10.8101 2.42583C10.4919 2.64116 10.4209 2.90501 10.4502 3.24436C10.4723 3.50083 10.5943 3.63931 10.8406 3.70287C11.3746 3.8407 11.9077 3.98219 12.4395 4.12832C12.6171 4.17715 12.7766 4.15785 12.9023 4.02404C13.0576 3.85869 13.1642 3.6667 13.0757 3.43019C12.9737 3.15786 12.9219 2.88518 13.0063 2.59808C13.166 2.0546 13.691 1.71238 14.248 1.79118C14.7983 1.86907 15.2145 2.33174 15.2289 2.88173C15.2434 3.43639 14.8372 3.93226 14.2799 4.01797C14.0712 4.05008 13.9078 4.12272 13.8009 4.31249C13.6479 4.58417 13.6853 4.76961 13.9141 4.98934C14.2806 5.34122 14.642 5.699 14.9927 6.06656C15.1388 6.21968 15.289 6.33898 15.5041 6.27669C15.7471 6.20631 15.9389 6.06578 15.9713 5.78755C16.0056 5.49224 16.1288 5.24507 16.3551 5.05137C16.7693 4.69687 17.3919 4.68857 17.8022 5.0311C18.2369 5.39404 18.348 5.97954 18.0753 6.47086C17.8164 6.93746 17.2285 7.16003 16.7173 6.97071C16.5161 6.89622 16.3316 6.85774 16.1341 6.97713C15.8598 7.14291 15.8024 7.33058 15.8981 7.6407C16.035 8.08445 16.1595 8.53296 16.2652 8.98505C16.3219 9.22737 16.3517 9.48699 16.6455 9.52958C17.1277 9.59948 17.3296 9.54701 17.5159 9.26197C17.872 8.71692 18.4803 8.52095 19.0826 8.72124C19.6329 8.90428 19.998 9.41386 19.9984 9.9995C19.9988 10.5814 19.6302 11.0997 19.0861 11.2821C18.5247 11.4704 17.9044 11.311 17.5861 10.832C17.3713 10.5088 17.1066 10.4203 16.7539 10.4562C16.4976 10.4823 16.3604 10.6002 16.2965 10.8479C16.1588 11.3819 16.0168 11.9149 15.8708 12.4467C15.8221 12.6242 15.8416 12.783 15.9759 12.9092C16.1417 13.0652 16.3338 13.1699 16.5699 13.0817C16.8497 12.9771 17.1292 12.9272 17.423 13.0194C17.9526 13.1856 18.2856 13.7073 18.2077 14.2554C18.1295 14.806 17.6664 15.2221 17.1168 15.2358C16.5709 15.2493 16.0844 14.8489 15.979 14.308C15.9559 14.1894 15.9307 14.0578 15.8627 13.9638C15.6263 13.6371 15.2706 13.6436 14.994 13.9381C14.6562 14.2979 14.3069 14.6477 13.9473 14.9858C13.781 15.1422 13.6506 15.2996 13.7264 15.5327C13.8049 15.7737 13.9569 15.9417 14.2328 15.9842C14.7682 16.0666 15.1193 16.4113 15.2013 16.9085C15.2777 17.3713 15.0656 17.8378 14.674 18.0682C14.2688 18.3067 13.7537 18.278 13.4 17.9974C13.0157 17.6925 12.8583 17.2035 13.022 16.7452C13.1055 16.5116 13.1394 16.2998 12.9868 16.0833C12.8411 15.8765 12.6615 15.8173 12.4185 15.8851C11.9013 16.0293 11.3824 16.1684 10.8617 16.2995C10.5913 16.3676 10.4704 16.5031 10.4458 16.7833C10.4163 17.1196 10.4979 17.3744 10.8067 17.5798C11.3 17.908 11.4648 18.5207 11.2726 19.0928C11.0906 19.6346 10.5684 20.003 9.98673 20C9.40354 19.997 8.89339 19.6291 8.71022 19.0793C8.52421 18.521 8.68846 17.9064 9.17681 17.5849C9.50628 17.3679 9.57373 17.0936 9.54044 16.7469C9.51707 16.5032 9.39554 16.3676 9.15759 16.3059C8.62368 16.1675 8.09011 16.0276 7.55851 15.8808C7.38115 15.8318 7.22275 15.8471 7.09397 15.9786C6.93382 16.142 6.83789 16.3337 6.90848 16.5719C6.9374 16.6694 6.98214 16.7629 7.00402 16.8618C7.13949 17.4741 6.73986 18.0784 6.12019 18.2045C5.49506 18.3317 4.90139 17.9228 4.78331 17.2838C4.67196 16.6813 5.08875 16.0815 5.70519 15.9919C5.9745 15.9527 6.14592 15.8286 6.24522 15.5832C6.32241 15.3925 6.28663 15.225 6.14553 15.0826C5.7418 14.6752 5.33474 14.2712 4.9293 13.8655C4.65252 13.5885 4.1525 13.7348 4.04242 14.1271C4.01699 14.2178 4.009 14.3133 3.9841 14.4041C3.81919 15.006 3.20096 15.3554 2.60135 15.1876C1.99544 15.0181 1.63714 14.3807 1.81218 13.7838C1.99011 13.1773 2.62751 12.8243 3.22508 13.0216C3.47216 13.1031 3.69718 13.1581 3.92713 12.9881C4.1214 12.8444 4.20016 12.662 4.11266 12.4364C3.88223 11.8422 3.72767 11.2317 3.66105 10.5974C3.65563 10.546 3.57298 10.476 3.5151 10.4626C3.41821 10.4402 3.31253 10.4565 3.15767 10.4565ZM12.7373 12.2814C13.7409 12.2765 14.5546 11.4563 14.5506 10.454C14.5464 9.43579 13.7282 8.63129 12.7051 8.63955C11.6993 8.64767 10.895 9.46711 10.9035 10.4752C10.9119 11.4798 11.7309 12.2864 12.7373 12.2814ZM8.85106 13.6427C9.48287 13.6459 9.9935 13.1456 9.99887 12.5181C10.0043 11.883 9.48732 11.3607 8.85512 11.3625C8.22995 11.3644 7.72028 11.8762 7.71932 12.5032C7.71831 13.1352 8.21916 13.6394 8.85106 13.6427ZM8.39481 8.18252C9.02977 8.18645 9.53206 7.69382 9.54101 7.05838C9.54988 6.43085 9.04759 5.91192 8.42185 5.902C7.78698 5.89196 7.26539 6.40499 7.26277 7.04196C7.26019 7.67141 7.76366 8.17863 8.39481 8.18252Z" fill="black"/>
</g>
<defs>
<clipPath id="clip0_1127_8363">
<rect width="19.9984" height="20" fill="white"/>
</clipPath>
</defs>
</svg>
