<svg width="20" height="20" viewBox="0 0 20 20" fill="none" xmlns="http://www.w3.org/2000/svg">
<g clip-path="url(#clip0_1127_8368)">
<path d="M9.99756 14.6654C7.38593 14.6654 4.77431 14.6676 2.16273 14.6642C1.26073 14.6631 0.5822 14.2676 0.200423 13.4448C0.0786305 13.1823 0.0116702 12.8696 0.0106453 12.5795C-0.00203786 9.08551 -0.00280654 5.59149 0.00526457 2.09751C0.00804035 0.899828 0.908546 0.0054288 2.10939 0.00414767C7.36821 -0.0014893 12.627 -0.00114766 17.8858 0.00376333C19.0979 0.00487364 19.9983 0.898162 20.001 2.10815C20.0087 5.5879 20.0082 9.06771 20.0014 12.5475C19.999 13.7768 19.0951 14.6617 17.8537 14.6639C15.235 14.6687 12.6163 14.6654 9.99756 14.6654ZM9.98047 13.3396C12.5849 13.3396 15.1893 13.3398 17.7937 13.3395C18.3869 13.3394 18.6779 13.053 18.678 12.4679C18.6785 9.0452 18.6785 5.62245 18.678 2.19975C18.6779 1.61265 18.3889 1.32738 17.7953 1.32734C12.6007 1.32708 7.40617 1.32708 2.21162 1.32734C1.60843 1.32738 1.32794 1.61081 1.3279 2.21948C1.32765 5.62796 1.32765 9.03645 1.3279 12.4449C1.32794 13.0622 1.60796 13.3395 2.23135 13.3395C4.81437 13.3398 7.39742 13.3397 9.98047 13.3396Z" fill="black"/>
<path d="M6.05288 17.009C7.81042 17.009 9.56796 17.007 11.3255 17.0124C11.4875 17.0129 11.5712 16.9784 11.6351 16.812C11.9782 15.92 12.8414 15.3406 13.7903 15.3438C14.7305 15.3469 15.5875 15.9265 15.9262 16.8086C15.9891 16.9725 16.0689 17.015 16.2348 17.013C17.0032 17.0041 17.7717 17.0068 18.5402 17.0104C18.8537 17.0118 19.1134 17.2057 19.2021 17.4882C19.2839 17.7484 19.1969 18.046 18.9487 18.2002C18.8183 18.2811 18.6447 18.325 18.4896 18.3277C17.7427 18.3405 16.9954 18.3387 16.2484 18.3295C16.074 18.3274 15.9906 18.3753 15.9244 18.5466C15.5795 19.4398 14.7233 20.0066 13.7613 20.0002C12.8172 19.9938 11.9695 19.4143 11.6311 18.5272C11.5728 18.3742 11.4994 18.3295 11.3397 18.3297C7.86021 18.3346 4.38071 18.3334 0.901205 18.3334C0.815839 18.3334 0.730302 18.3358 0.645064 18.3322C0.284213 18.3169 0.0116744 18.0439 0.00313358 17.6913C-0.0055781 17.3318 0.26585 17.0366 0.630801 17.0112C0.701648 17.0062 0.773049 17.0091 0.844195 17.0091C2.58051 17.009 4.31669 17.009 6.05288 17.009ZM14.787 17.6818C14.7867 17.1253 14.3399 16.672 13.7894 16.6697C13.2374 16.6675 12.7826 17.1171 12.7789 17.6688C12.7752 18.2304 13.2314 18.6814 13.7986 18.677C14.3426 18.6726 14.7873 18.2249 14.787 17.6818Z" fill="black"/>
<path d="M8.02077 3.30859C8.1561 3.36573 8.30202 3.40592 8.42518 3.48261C10.1701 4.56905 11.9128 5.659 13.6539 6.75163C14.129 7.04979 14.1286 7.61477 13.6504 7.91575C12.242 8.80242 10.8298 9.68306 9.41891 10.5658C9.09931 10.7658 8.77672 10.9612 8.45994 11.1654C8.20957 11.3268 7.9536 11.3951 7.67768 11.2411C7.40903 11.0912 7.33853 10.8433 7.33887 10.5537C7.34147 8.39754 7.33951 6.24135 7.341 4.08521C7.3413 3.62853 7.60838 3.33409 8.02077 3.30859ZM12.0884 7.33219C10.9321 6.60823 9.81794 5.91069 8.68828 5.20343C8.68828 6.64072 8.68828 8.03472 8.68828 9.46258C9.82891 8.74792 10.9402 8.05163 12.0884 7.33219Z" fill="black"/>
</g>
<defs>
<clipPath id="clip0_1127_8368">
<rect width="20.0067" height="20" fill="white"/>
</clipPath>
</defs>
</svg>
