<svg width="20" height="20" viewBox="0 0 20 20" fill="none" xmlns="http://www.w3.org/2000/svg">
<g clip-path="url(#clip0_1127_8349)">
<path d="M17.8779 6.66831C17.5787 6.66831 17.2956 6.67473 17.0129 6.66629C16.7839 6.65946 16.6116 6.54843 16.527 6.33035C16.4496 6.13073 16.477 5.92806 16.6403 5.79547C16.753 5.70396 16.9167 5.63747 17.0612 5.6302C17.4866 5.60882 17.9138 5.61861 18.3402 5.6236C18.7365 5.62826 18.9306 5.8256 18.9311 6.22565C18.9331 7.83425 18.932 9.44286 18.932 11.0515C18.932 12.892 18.932 14.7325 18.932 16.5731C18.932 16.6538 18.932 16.7344 18.932 16.8474C19.1096 16.8474 19.2641 16.843 19.4183 16.8482C19.7769 16.8604 19.9766 17.0521 19.985 17.4076C19.9933 17.759 19.9982 18.1114 19.9827 18.4624C19.9448 19.3216 19.3227 19.9431 18.4634 19.9948C18.3963 19.9988 18.3288 19.9979 18.2615 19.9979C12.7473 19.998 7.23319 19.9966 1.71903 20C1.07903 20.0004 0.558966 19.7833 0.227655 19.2213C0.124252 19.0459 0.0444213 18.8348 0.0286168 18.6342C-0.00528212 18.2029 -0.00546172 17.7674 0.00948972 17.3345C0.0195471 17.0421 0.226937 16.8673 0.529917 16.8502C0.693125 16.841 0.857322 16.8485 1.05483 16.8485C1.05483 16.7339 1.05483 16.6396 1.05483 16.5454C1.05483 13.1411 1.05479 9.73686 1.05492 6.3326C1.05492 5.78855 1.2206 5.62256 1.76393 5.62229C2.57943 5.62189 3.39498 5.62216 4.21049 5.62216C4.28888 5.62216 4.36723 5.62216 4.47822 5.62216C4.268 5.29897 4.09294 5.00538 3.89345 4.72947C3.64736 4.38914 3.65692 4.0822 3.87837 3.71888C4.80756 2.19437 6.03815 1.01415 7.73786 0.415824C9.99175 -0.377546 12.0991 -0.0244583 14.0271 1.37936C14.9239 2.03238 15.6097 2.87536 16.1673 3.82902C16.3122 4.07677 16.3378 4.3049 16.1874 4.56501C15.2112 6.25308 13.867 7.51435 11.9824 8.10697C9.89742 8.76263 7.95082 8.4064 6.14879 7.1926C6.07439 7.14249 5.98966 7.09993 5.93174 7.03442C5.63716 6.7014 5.26719 6.64775 4.84213 6.6618C4.02002 6.68896 3.19639 6.66975 2.37339 6.66975C2.2919 6.66975 2.21036 6.66975 2.11181 6.66975C2.11181 10.0635 2.11181 13.4399 2.11181 16.8317C7.36829 16.8317 12.6159 16.8317 17.8778 16.8317C17.8779 13.4504 17.8779 10.0796 17.8779 6.66831ZM10.2719 7.38221C10.5323 7.33497 11.0663 7.28653 11.5706 7.13755C13.1206 6.67976 14.2624 5.68466 15.1018 4.32533C15.1385 4.26593 15.1224 4.13905 15.0826 4.07255C14.6947 3.42506 14.2059 2.86193 13.6197 2.38618C12.3958 1.39288 11.0001 0.916674 9.42584 1.0912C7.41449 1.31421 5.95711 2.41209 4.8956 4.08669C4.85641 4.14852 4.85569 4.27734 4.89444 4.33867C5.06187 4.60366 5.23342 4.8696 5.43453 5.10914C6.62557 6.52769 8.11533 7.35275 10.2719 7.38221ZM18.9354 17.9076C12.9594 17.9076 7.01561 17.9076 1.04707 17.9076C1.04707 17.9999 1.0472 18.0803 1.04707 18.1606C1.0459 18.8153 1.18019 18.9503 1.8328 18.9503C7.28608 18.9503 12.7394 18.9504 18.1927 18.9502C18.2824 18.9502 18.3728 18.9543 18.4618 18.9453C18.7133 18.9197 18.9118 18.7313 18.9325 18.4801C18.9476 18.296 18.9354 18.1096 18.9354 17.9076Z" fill="black"/>
<path d="M4.90834 12.3922C5.33336 12.0389 5.71159 11.7343 6.07806 11.4161C6.29775 11.2253 6.52382 11.1912 6.78028 11.3195C7.07451 11.4667 7.373 11.606 7.66179 11.7631C7.78683 11.8312 7.87281 11.8165 7.98048 11.7321C8.83388 11.0626 9.69262 10.3999 10.5466 9.73109C11.0097 9.3683 11.2075 9.38519 11.5781 9.83059C11.9886 10.3241 12.4019 10.8153 12.8345 11.332C13.1156 11.0531 13.3846 10.7876 13.6519 10.5204C14.1706 10.0022 14.6875 9.48221 15.2069 8.96475C15.3676 8.80469 15.558 8.73671 15.7806 8.81757C15.9818 8.89071 16.097 9.04211 16.125 9.25071C16.1567 9.48684 16.0069 9.64035 15.8565 9.79058C15.0628 10.5837 14.2694 11.3772 13.4758 12.1706C13.407 12.2394 13.3391 12.309 13.2693 12.3766C12.9023 12.7318 12.6359 12.7215 12.3097 12.3338C11.9148 11.8645 11.5238 11.3918 11.1306 10.9211C11.0834 10.8646 11.0325 10.8111 10.963 10.7334C10.6852 10.9466 10.4137 11.1528 10.1446 11.3621C9.53054 11.8395 8.91344 12.3133 8.30614 12.7993C8.05708 12.9986 7.81391 13.017 7.53881 12.8698C7.26852 12.7252 6.98983 12.5962 6.71855 12.4532C6.60423 12.393 6.51861 12.402 6.41759 12.4879C5.9562 12.8806 5.48678 13.2639 5.02558 13.6568C4.97008 13.704 4.91701 13.7878 4.91396 13.857C4.90143 14.14 4.90875 14.4238 4.90875 14.727C5.26264 14.727 5.60055 14.727 5.93761 14.727C6.01138 14.242 6.16229 14.0531 6.47591 14.0472C6.78949 14.0412 6.93213 14.2118 7.04204 14.7339C7.37282 14.7339 7.70642 14.7339 8.03845 14.7339C8.13637 14.2194 8.27884 14.045 8.59385 14.0473C8.90226 14.0497 9.04073 14.2196 9.14072 14.7307C9.47666 14.7307 9.81578 14.7307 10.1531 14.7307C10.2193 14.2425 10.3735 14.0499 10.6911 14.0472C11.0069 14.0444 11.1631 14.2353 11.2367 14.7288C11.5731 14.7288 11.9126 14.7288 12.2506 14.7288C12.358 14.2037 12.5116 14.0259 12.833 14.0483C13.1352 14.0693 13.2876 14.2688 13.3361 14.7253C13.6711 14.7253 14.0091 14.7253 14.3008 14.7253C14.405 14.5197 14.4776 14.3185 14.6017 14.1569C14.6598 14.0812 14.8173 14.0535 14.9298 14.0535C15.2356 14.0533 15.3825 14.2548 15.4455 14.7303C15.5152 14.7377 15.5886 14.7431 15.6613 14.7536C15.9321 14.7926 16.1323 15.0143 16.1298 15.2701C16.1273 15.5179 15.9353 15.7373 15.6765 15.78C15.6034 15.7921 15.5274 15.789 15.4527 15.789C11.8161 15.7893 8.17952 15.7894 4.54295 15.7892C4.0364 15.7892 3.85406 15.6068 3.85397 15.0998C3.85362 12.9897 3.85384 10.8796 3.85384 8.76944C3.85384 8.72454 3.85272 8.6796 3.85465 8.63479C3.86879 8.30868 4.08808 8.07754 4.38199 8.07813C4.67374 8.07871 4.90318 8.31138 4.90565 8.63676C4.91198 9.47476 4.90816 10.3129 4.90834 11.1509C4.90843 11.5452 4.90834 11.9395 4.90834 12.3922Z" fill="black"/>
<path d="M9.9952 1.42188C11.5458 1.423 12.7942 2.67223 12.7918 4.2204C12.7894 5.763 11.5271 7.02615 9.99071 7.02332C8.45138 7.02049 7.1929 5.75712 7.19434 4.216C7.19582 2.66707 8.44509 1.42075 9.9952 1.42188ZM11.7466 4.22695C11.7492 3.25332 10.97 2.4639 10.0025 2.46026C9.03489 2.45658 8.23991 3.24294 8.23618 4.20733C8.23245 5.1785 9.01343 5.96689 9.98298 5.97075C10.9585 5.97461 11.7439 5.19795 11.7466 4.22695Z" fill="black"/>
</g>
<defs>
<clipPath id="clip0_1127_8349">
<rect width="19.9927" height="20" fill="white"/>
</clipPath>
</defs>
</svg>
