<svg width="23" height="20" viewBox="0 0 23 20" fill="none" xmlns="http://www.w3.org/2000/svg">
<g clip-path="url(#clip0_1127_8355)">
<path d="M0 6.39825C0.0845388 6.04969 0.139696 5.69076 0.258528 5.35431C0.882024 3.58882 2.4847 2.42168 4.35731 2.40591C6.81285 2.38523 9.26871 2.39843 11.7244 2.40163C12.2672 2.40235 12.6638 2.79125 12.6557 3.29267C12.6476 3.79274 12.2646 4.15144 11.7229 4.15193C9.30467 4.15419 6.88649 4.15067 4.4683 4.15405C3.07589 4.15595 1.99761 5.08155 1.77851 6.45589C1.75855 6.58112 1.75549 6.71009 1.75544 6.83735C1.75427 10.3144 1.75598 13.7915 1.75251 17.2686C1.75211 17.6862 1.90902 18.0022 2.29354 18.1734C2.67473 18.343 3.00811 18.2297 3.30611 17.9583C3.7335 17.569 4.17029 17.1901 4.59529 16.7983C4.82903 16.5829 5.09071 16.4845 5.41089 16.4851C8.45239 16.4902 11.4939 16.4901 14.5354 16.4871C15.8461 16.4858 16.8768 15.6882 17.1823 14.4389C17.2317 14.237 17.2493 14.0234 17.2523 13.8148C17.2613 13.1916 17.2541 12.5682 17.2563 11.9449C17.2582 11.3895 17.6171 11.0007 18.1251 10.9984C18.6442 10.9962 19.0125 11.3868 19.0085 11.9539C19.003 12.7494 19.0397 13.5499 18.9647 14.3394C18.7584 16.5102 16.8951 18.2151 14.7109 18.2326C11.9174 18.2552 9.12352 18.2534 6.33009 18.228C5.81028 18.2233 5.41179 18.339 5.06115 18.7226C4.80943 18.998 4.51976 19.2458 4.21923 19.4682C2.64432 20.6343 0.442251 19.7792 0.050561 17.8581C0.0372223 17.7927 0.0170339 17.7287 4.50633e-05 17.6642C0 13.9088 0 10.1535 0 6.39825Z" fill="black"/>
<path d="M22.5318 2.92997C22.4917 3.08914 22.4579 3.25015 22.4105 3.4071C22.2706 3.8704 22.0082 4.25709 21.6673 4.59741C19.5427 6.71876 17.4283 8.85044 15.2938 10.9619C13.9875 12.2541 12.4023 12.9215 10.5574 12.9503C9.91246 12.9603 9.5574 12.5919 9.578 11.9417C9.63897 10.0169 10.3791 8.4035 11.7506 7.05291C13.5154 5.31499 15.2545 3.55104 17.0054 1.79902C17.3767 1.42743 17.7362 1.04214 18.1276 0.69276C18.8921 0.0102758 19.7878 -0.168761 20.7494 0.1593C21.7253 0.492228 22.2943 1.20743 22.4888 2.22005C22.497 2.26259 22.5172 2.30283 22.5318 2.34415C22.5318 2.53941 22.5318 2.73471 22.5318 2.92997ZM11.4009 11.1159C12.4436 10.915 13.2898 10.4797 13.9892 9.7873C15.7713 8.02298 17.5401 6.24528 19.3141 4.47276C19.7124 4.07476 20.1144 3.68032 20.5068 3.27655C20.8414 2.93223 20.8637 2.45244 20.5765 2.08882C20.3049 1.74503 19.8253 1.65184 19.4422 1.88486C19.3164 1.96138 19.2107 2.07436 19.105 2.17985C17.0859 4.19607 15.0725 6.21806 13.0474 8.22838C12.4419 8.82953 11.9362 9.48948 11.646 10.2979C11.5562 10.5483 11.4923 10.8079 11.4009 11.1159Z" fill="black"/>
<path d="M5.70516 9.43324C5.27774 9.43324 4.85027 9.43843 4.42293 9.43194C3.91011 9.42414 3.53667 9.06945 3.52284 8.58889C3.50891 8.10487 3.88321 7.70218 4.39684 7.69407C5.28143 7.68015 6.16657 7.67988 7.05116 7.69461C7.55542 7.70299 7.9225 8.09608 7.91759 8.57389C7.91263 9.05534 7.53956 9.42288 7.03237 9.43162C6.59007 9.43924 6.14759 9.4332 5.70516 9.43324Z" fill="black"/>
<path d="M5.69895 12.9533C5.27905 12.9531 4.85906 12.9577 4.4392 12.952C3.9016 12.9448 3.5195 12.577 3.52248 12.0794C3.52536 11.5936 3.9061 11.2175 4.42532 11.2128C5.29509 11.205 6.16504 11.205 7.03476 11.2135C7.48264 11.2178 7.79556 11.4803 7.89254 11.8991C7.98181 12.2846 7.80264 12.6859 7.43672 12.8562C7.29955 12.9201 7.1339 12.923 6.98113 12.9529C6.96667 12.9557 6.95121 12.9535 6.9362 12.9535C6.52378 12.9535 6.11137 12.9535 5.69895 12.9533Z" fill="black"/>
</g>
<defs>
<clipPath id="clip0_1127_8355">
<rect width="22.5317" height="20" fill="white"/>
</clipPath>
</defs>
</svg>
