<svg width="20" height="20" viewBox="0 0 20 20" fill="none" xmlns="http://www.w3.org/2000/svg">
<path d="M5.83333 13.332L2.5 9.9987M2.5 9.9987L5.83333 6.66536M2.5 9.9987H14.1667M9.16667 13.332V14.1654C9.16667 14.8284 9.43006 15.4643 9.8989 15.9331C10.3677 16.402 11.0036 16.6654 11.6667 16.6654H15C15.663 16.6654 16.2989 16.402 16.7678 15.9331C17.2366 15.4643 17.5 14.8284 17.5 14.1654V5.83203C17.5 5.16899 17.2366 4.53311 16.7678 4.06426C16.2989 3.59542 15.663 3.33203 15 3.33203H11.6667C11.0036 3.33203 10.3677 3.59542 9.8989 4.06426C9.43006 4.53311 9.16667 5.16899 9.16667 5.83203V6.66536" stroke="black" stroke-width="1.66667" stroke-linecap="round" stroke-linejoin="round"/>
</svg>
