<svg width="25" height="25" viewBox="0 0 25 25" fill="none" xmlns="http://www.w3.org/2000/svg">
<path d="M8.12468 2.08203H16.8747C20.208 2.08203 22.9163 4.79036 22.9163 8.1237V16.8737C22.9163 18.476 22.2798 20.0128 21.1468 21.1458C20.0137 22.2788 18.477 22.9154 16.8747 22.9154H8.12468C4.79134 22.9154 2.08301 20.207 2.08301 16.8737V8.1237C2.08301 6.52135 2.71954 4.98463 3.85257 3.85159C4.9856 2.71856 6.52233 2.08203 8.12468 2.08203ZM7.91634 4.16536C6.92178 4.16536 5.96795 4.56045 5.26469 5.26371C4.56143 5.96698 4.16634 6.9208 4.16634 7.91536V17.082C4.16634 19.1549 5.84342 20.832 7.91634 20.832H17.083C18.0776 20.832 19.0314 20.4369 19.7347 19.7337C20.4379 19.0304 20.833 18.0766 20.833 17.082V7.91536C20.833 5.84245 19.1559 4.16536 17.083 4.16536H7.91634ZM17.9684 5.72786C18.3138 5.72786 18.645 5.86505 18.8891 6.10924C19.1333 6.35342 19.2705 6.68461 19.2705 7.02995C19.2705 7.37528 19.1333 7.70647 18.8891 7.95066C18.645 8.19485 18.3138 8.33203 17.9684 8.33203C17.6231 8.33203 17.2919 8.19485 17.0477 7.95066C16.8035 7.70647 16.6663 7.37528 16.6663 7.02995C16.6663 6.68461 16.8035 6.35342 17.0477 6.10924C17.2919 5.86505 17.6231 5.72786 17.9684 5.72786ZM12.4997 7.29037C13.881 7.29037 15.2058 7.8391 16.1825 8.81585C17.1593 9.7926 17.708 11.1174 17.708 12.4987C17.708 13.88 17.1593 15.2048 16.1825 16.1815C15.2058 17.1583 13.881 17.707 12.4997 17.707C11.1183 17.707 9.79358 17.1583 8.81683 16.1815C7.84008 15.2048 7.29134 13.88 7.29134 12.4987C7.29134 11.1174 7.84008 9.7926 8.81683 8.81585C9.79358 7.8391 11.1183 7.29037 12.4997 7.29037ZM12.4997 9.3737C11.6709 9.3737 10.876 9.70294 10.29 10.289C9.70391 10.875 9.37467 11.6699 9.37467 12.4987C9.37467 13.3275 9.70391 14.1224 10.29 14.7084C10.876 15.2945 11.6709 15.6237 12.4997 15.6237C13.3285 15.6237 14.1233 15.2945 14.7094 14.7084C15.2954 14.1224 15.6247 13.3275 15.6247 12.4987C15.6247 11.6699 15.2954 10.875 14.7094 10.289C14.1233 9.70294 13.3285 9.3737 12.4997 9.3737Z" fill="#ACADAE"/>
</svg>
