<svg width="151" height="45" viewBox="0 0 151 45" fill="none" xmlns="http://www.w3.org/2000/svg">
<path d="M30.329 15.8688C28.4411 15.8688 26.5525 15.8762 24.6639 15.8651C23.7862 15.8607 23.2594 15.2133 23.4867 14.4283C23.6 14.031 23.8649 13.7529 24.2924 13.6852C24.5103 13.6529 24.7305 13.6379 24.9508 13.6403C28.4695 13.6369 31.9885 13.6369 35.5077 13.6403C35.8579 13.6403 36.047 13.5454 36.1846 13.1871C36.9858 11.1043 38.4469 9.61149 40.4518 8.68154C41.1625 8.35193 41.9409 8.19007 42.7325 8.07162C43.5682 7.95184 44.4186 7.98249 45.2435 8.16212C46.4545 8.41447 47.6288 8.86547 48.5786 9.70051C49.1561 10.2082 49.6432 10.8173 50.1766 11.3758C50.2867 11.4784 50.4035 11.5738 50.526 11.6612C50.6224 11.5354 50.7468 11.4206 50.8115 11.2808C51.1911 10.5083 51.5649 9.73583 51.9269 8.95302C52.1078 8.56235 52.3028 8.22833 52.7597 8.07677C53.2342 7.91859 53.5822 8.06427 53.9045 8.37842C54.2532 8.71906 54.2974 9.14578 54.1127 9.55558C53.6242 10.6489 53.1003 11.7267 52.5875 12.8089C52.4073 13.19 52.2131 13.5638 52.035 13.9456C51.9438 14.1421 52.0409 14.2694 52.2226 14.3525L56.3478 16.2433C56.9364 16.514 57.2447 16.9364 57.2057 17.4668C57.163 18.0613 56.6377 18.6984 55.8409 18.4284C55.1008 18.1783 54.3945 17.8222 53.6808 17.497C52.8892 17.1357 52.1071 16.7517 51.3162 16.389C51.1006 16.2904 50.93 16.3389 50.8144 16.5876C50.0478 18.2437 49.2643 19.8932 48.4969 21.5486C47.6832 23.3026 46.8849 25.0632 46.0734 26.8179C45.5099 28.0384 44.9478 29.2605 44.3592 30.4692C44.1164 30.9681 43.6743 31.1939 43.1085 31.1932C39.9571 31.1888 36.806 31.1873 33.6552 31.1888C31.3872 31.1888 29.1187 31.1905 26.8497 31.1939C26.1839 31.1939 25.7572 30.9099 25.4732 30.2838C24.7375 28.6653 23.9436 27.0709 23.1925 25.4582C22.3743 23.7035 21.5842 21.9356 20.7704 20.1787C20.2554 19.0692 19.7206 17.9715 19.1975 16.8643C18.6332 15.6724 18.9525 15.8791 17.584 15.8703C14.8619 15.8534 12.1397 15.86 9.4175 15.846C9.15185 15.8418 8.888 15.8015 8.63322 15.7261C8.1653 15.5929 7.95121 14.93 8.00933 14.5629C8.04646 14.3332 8.15762 14.1219 8.32589 13.9612C8.49416 13.8005 8.71033 13.6992 8.94149 13.6727C9.16106 13.6447 9.38231 13.6319 9.60364 13.6344C12.718 13.6344 15.8323 13.6491 18.9473 13.6293C20.3275 13.6204 20.3084 13.9626 20.7785 14.8726C21.1773 15.6452 21.5099 16.4522 21.8704 17.2446C22.3059 18.2011 22.737 19.1575 23.1763 20.1139C23.3256 20.4594 23.4977 20.7947 23.6913 21.1175C23.7553 21.2197 23.9547 21.2823 24.0937 21.2845C24.9516 21.2985 25.8102 21.2904 26.6687 21.2896C28.8887 21.2896 31.1081 21.2896 33.327 21.2896C34.9206 21.2896 36.0772 20.5649 36.7283 19.117C37.1749 18.1253 37.0616 17.1269 36.5679 16.1624C36.4391 15.9108 36.2493 15.8681 35.9984 15.8681C34.1098 15.874 32.222 15.8681 30.3334 15.8681L30.329 15.8688ZM24.8515 23.602C24.9391 23.8316 24.9854 23.9816 25.0516 24.1222C25.752 25.5936 26.476 27.0599 27.1425 28.5497C27.2801 28.8565 27.442 28.9176 27.7098 28.9235C27.8694 28.9235 28.0291 28.9235 28.188 28.9235C32.7985 28.9235 37.4091 28.9235 42.0196 28.9235C42.1663 28.9318 42.3133 28.9167 42.4552 28.8786C42.5648 28.8392 42.656 28.7606 42.7112 28.6579C43.2998 27.4072 43.8641 26.1498 44.449 24.8991C45.3399 22.9928 46.2427 21.0917 47.1388 19.1869C47.8009 17.7891 48.4631 16.3846 49.109 14.9779C49.1826 14.8116 49.2525 14.5865 49.2039 14.4239C48.8361 13.1967 48.1666 12.1667 47.1292 11.3883C45.5415 10.1971 43.7633 9.99627 41.924 10.5326C40.3885 10.9836 39.2467 11.9967 38.5176 13.4409C38.0805 14.3083 38.11 14.2892 38.5499 15.1427C38.8192 15.665 39.0649 16.2352 39.1466 16.8083C39.2687 17.6735 39.2805 18.5542 39.009 19.4231C38.6321 20.6699 37.844 21.7523 36.7732 22.494C35.7432 23.2231 34.5984 23.5174 33.3447 23.5093C30.6961 23.4909 28.0475 23.5027 25.3989 23.5093C25.2223 23.5093 25.0457 23.5674 24.8515 23.602Z" fill="white"/>
<path d="M30.0307 36.8393C29.111 36.9018 28.6291 36.1668 28.6424 35.451C28.6563 34.7153 29.1838 34.0531 30.0307 34.0789C30.8517 34.1017 31.4241 34.6476 31.4285 35.4694C31.433 36.2912 30.8664 36.8363 30.0307 36.8393Z" fill="white"/>
<path d="M39.836 36.836C39.0267 36.925 38.4624 36.0944 38.4882 35.447C38.5161 34.7451 39.0399 34.0278 39.9758 34.0638C40.7034 34.091 41.3001 34.8113 41.2898 35.4948C41.2832 36.1187 40.7248 36.953 39.836 36.836Z" fill="white"/>
<path d="M43.6777 13.3477C44.4664 13.344 45.0755 13.9591 45.0844 14.7544C45.0817 15.1273 44.9332 15.4843 44.6705 15.7491C44.4079 16.0138 44.052 16.1651 43.6791 16.1707C42.9773 16.1707 42.3158 15.6557 42.2945 14.7728C42.2872 14.5873 42.3177 14.4022 42.3841 14.2287C42.4505 14.0553 42.5514 13.8972 42.6808 13.7639C42.8101 13.6307 42.9651 13.5251 43.1365 13.4535C43.3079 13.382 43.492 13.346 43.6777 13.3477Z" fill="white"/>
<path d="M120.292 23.492C120.292 22.6849 120.277 21.9787 120.305 21.2746C120.305 21.1291 120.445 20.956 120.565 20.8498C121.278 20.2126 122.001 19.5875 122.731 18.9744C122.863 18.8682 123.05 18.8278 123.218 18.762L123.033 18.4965H117.33V14.9219H128.162C128.162 16.0104 128.174 17.0671 128.149 18.1237C128.149 18.2628 127.981 18.4211 127.855 18.5294C126.976 19.294 126.088 20.047 125.154 20.8466C125.359 20.9061 125.501 20.9528 125.645 20.9889C127.498 21.4594 128.717 22.7943 128.878 24.5487C129.077 26.6939 128.241 28.3888 126.411 29.1608C123.891 30.2228 121.338 30.1867 118.871 28.9686C117.632 28.359 116.877 27.314 116.572 25.908C117.834 25.651 119.077 25.3887 120.325 25.1582C120.449 25.1349 120.673 25.2719 120.743 25.3951C121.358 26.491 122.867 26.9222 123.972 26.2903C124.503 25.9845 124.715 25.5044 124.682 24.9097C124.646 24.2895 124.285 23.8733 123.726 23.6938C123.285 23.5705 122.829 23.5055 122.371 23.5005C121.699 23.4697 121.029 23.492 120.292 23.492Z" fill="white"/>
<path d="M79.2238 22.8922C79.3226 21.5393 79.5307 19.975 80.6617 18.7176C81.2458 18.0748 81.9981 17.6084 82.8335 17.371C84.1376 16.9738 85.4735 17.0174 86.7532 17.2298C88.2931 17.4846 89.5143 18.3852 90.1515 19.8943C90.7101 21.2132 90.8206 22.5842 90.7059 24.0126C90.6135 25.1723 90.3873 26.2502 89.6959 27.1985C88.9175 28.2732 87.8693 28.8563 86.5599 29.1101C85.4488 29.3248 84.3052 29.3078 83.2009 29.0602C81.7301 28.7416 80.6139 27.892 79.9491 26.5443C79.4277 25.4856 79.2164 24.328 79.2238 22.8922ZM87.4647 23.1832C87.3957 22.8019 87.3065 22.4398 87.2683 22.0777C87.1143 20.5803 86.7267 20.096 85.2962 19.7721C84.9914 19.7031 84.6505 19.7944 84.3266 19.8189C83.717 19.8635 83.3517 20.2957 83.1191 20.7598C82.5945 21.8111 82.5096 22.9623 82.6944 24.106C82.8717 25.2254 83.1744 26.2767 84.5624 26.5263C85.3217 26.6622 85.9578 26.5178 86.5313 26.0378C87.4403 25.2763 87.1801 24.1475 87.4647 23.1832Z" fill="white"/>
<path d="M92.9256 17.1928C93.8261 17.1928 94.6746 17.214 95.5221 17.1843C95.9893 17.1684 96.0371 17.4211 96.0371 17.778C96.0371 19.5833 96.017 21.3887 96.0456 23.194C96.0573 23.9109 96.172 24.6245 96.2442 25.3392C96.3504 26.3736 97.6322 26.7442 98.2821 26.5573C99.3951 26.2387 99.6627 25.8967 99.6808 24.7275C99.7073 22.4814 99.6967 20.2343 99.702 17.9882C99.702 17.2756 99.7838 17.196 100.489 17.1949C101.143 17.1949 101.798 17.2045 102.453 17.1949C102.854 17.1875 103.038 17.3659 103.038 17.761C103.038 20.0251 103.098 22.2924 103.008 24.5576C102.954 25.884 102.633 27.203 101.516 28.1163C100.151 29.2303 98.5487 29.4225 96.8665 29.2069C95.778 29.0678 94.7766 28.7226 93.9992 27.8879C93.3344 27.1732 92.9192 26.3056 92.8948 25.3657C92.8268 22.7671 92.8618 20.1621 92.8597 17.5656C92.8706 17.4396 92.8926 17.3149 92.9256 17.1928Z" fill="white"/>
<path d="M72.3917 29.0674H69.2196V28.546C69.2196 24.9905 69.227 21.4308 69.209 17.8785C69.209 17.3571 69.3417 17.1648 69.894 17.185C71.0621 17.2286 72.2303 17.1415 73.3985 17.2211C74.2191 17.2826 75.0293 17.4435 75.8113 17.7001C76.8244 18.0282 77.4818 18.8417 77.6825 19.84C78.0404 21.6198 77.8046 23.5569 75.9738 24.5657C75.2994 24.9374 74.4583 25.0298 73.681 25.1859C73.2933 25.2634 72.876 25.1997 72.396 25.1997V29.0674H72.3917ZM72.4979 19.7794C72.4609 19.8542 72.4304 19.932 72.4066 20.012C72.4016 20.5423 72.3981 21.0733 72.396 21.605C72.396 22.6032 72.43 22.634 73.4367 22.5161C73.4723 22.5148 73.5078 22.5113 73.5429 22.5055C74.0919 22.3505 74.5348 21.8959 74.5815 21.4435C74.6442 20.8488 74.6325 20.2754 73.9178 20.0046C73.4749 19.8378 72.9673 19.8484 72.4947 19.7794H72.4979Z" fill="white"/>
<path d="M136.568 21.6236L138.123 18.2922C138.241 18.0395 138.336 17.7612 138.49 17.5414C138.596 17.3906 138.798 17.2228 138.962 17.2143C139.949 17.1835 140.938 17.1994 142.025 17.1994C141.987 17.3513 141.938 17.5001 141.877 17.6444C140.689 19.8745 139.491 22.0941 138.309 24.3242C138.208 24.5246 138.155 24.7455 138.153 24.9699C138.139 26.3122 138.146 27.6556 138.146 29.0426H134.96V27.4592C134.96 26.9993 134.917 26.5342 134.968 26.0786C135.1 24.9041 134.668 23.9387 134.068 22.9564C133.317 21.7245 132.721 20.397 132.056 19.112C131.749 18.5184 131.436 17.9279 131.053 17.2005C131.827 17.2005 132.461 17.2653 133.07 17.1856C134.108 17.0497 134.745 17.3736 135.114 18.4069C135.496 19.4593 136.033 20.4544 136.568 21.6236Z" fill="white"/>
<path d="M108.667 26.4427C110.027 26.4427 111.3 26.4586 112.57 26.4353C113.082 26.4257 113.268 26.6349 113.251 27.1224C113.232 27.6534 113.268 28.1844 113.231 28.7153C113.223 28.846 113.028 29.069 112.913 29.07C110.46 29.0913 108.007 29.086 105.508 29.086C105.497 28.8587 105.482 28.6707 105.482 28.4828C105.482 24.9475 105.49 21.4111 105.473 17.8758C105.473 17.366 105.579 17.1324 106.146 17.1876C106.763 17.2349 107.383 17.2349 108 17.1876C108.51 17.1568 108.678 17.331 108.673 17.8471C108.652 20.4808 108.664 23.1156 108.664 25.7492L108.667 26.4427Z" fill="white"/>
</svg>
