<svg width="150" height="150" viewBox="0 0 150 150" fill="none" xmlns="http://www.w3.org/2000/svg">
<ellipse cx="54.7235" cy="54.7238" rx="54.7235" ry="54.7238" transform="matrix(0.866023 -0.500004 0.499996 0.866028 0.490234 55.2148)" fill="url(#paint0_linear_2751_6644)"/>
<mask id="mask0_2751_6644" style="mask-type:alpha" maskUnits="userSpaceOnUse" x="20" y="20" width="110" height="110">
<ellipse cx="54.7235" cy="54.7238" rx="54.7235" ry="54.7238" transform="matrix(0.866023 -0.500004 0.499996 0.866028 0.00195312 54.7227)" fill="url(#paint1_linear_2751_6644)"/>
</mask>
<g mask="url(#mask0_2751_6644)">
<path d="M71.0169 6.85589C85.0928 31.2364 76.7395 62.4116 52.3593 76.4876C27.9792 90.5637 -3.19566 82.2103 -17.2716 57.8298C-31.3475 33.4494 -22.9942 2.27417 1.38595 -11.8019C25.7661 -25.8779 56.941 -17.5246 71.0169 6.85589Z" stroke="white" stroke-opacity="0.2" stroke-width="7.50001"/>
</g>
<path d="M52.5769 92.3807L66.4584 78.3577L73.9601 85.5402L83.1285 77.5254L88.236 82.5053M98.052 60.4242C98.052 59.517 97.6917 58.6471 97.0503 58.0057C96.4089 57.3643 95.5389 57.0039 94.6318 57.0039H55.8694C54.9623 57.0039 54.0924 57.3643 53.451 58.0057C52.8096 58.6471 52.4492 59.517 52.4492 60.4242V70.6849H98.052V60.4242Z" stroke="white" stroke-width="2.5" stroke-linecap="round" stroke-linejoin="round"/>
<path d="M98.052 68.4041V90.0657C98.052 90.9728 97.6917 91.8427 97.0503 92.4841C96.4089 93.1256 95.5389 93.4859 94.6318 93.4859H61.5698M69.678 63.8438H90.1992M60.5551 63.8438H62.8353M52.4492 68.4041V78.6648" stroke="white" stroke-width="2.5" stroke-linecap="round" stroke-linejoin="round"/>
<defs>
<linearGradient id="paint0_linear_2751_6644" x1="54.7235" y1="0" x2="54.7235" y2="109.448" gradientUnits="userSpaceOnUse">
<stop stop-color="#7583FE"/>
<stop offset="1" stop-color="#464E98"/>
</linearGradient>
<linearGradient id="paint1_linear_2751_6644" x1="54.7235" y1="0" x2="54.7235" y2="109.448" gradientUnits="userSpaceOnUse">
<stop stop-color="#7583FE"/>
<stop offset="1" stop-color="#464E98"/>
</linearGradient>
</defs>
</svg>
