<svg width="189" height="43" viewBox="0 0 189 43" fill="none" xmlns="http://www.w3.org/2000/svg">
<path d="M155.907 23.1433C155.907 21.9144 155.884 20.839 155.926 19.7669C155.926 19.5454 156.14 19.2818 156.322 19.1201C157.409 18.1499 158.509 17.198 159.621 16.2644C159.822 16.1027 160.106 16.0413 160.362 15.941L160.08 15.5367H151.397V10.0938H167.891C167.891 11.7512 167.908 13.3602 167.871 14.9691C167.871 15.181 167.614 15.4219 167.423 15.5869C166.084 16.7511 164.733 17.8976 163.31 19.1153C163.622 19.2058 163.838 19.277 164.058 19.3319C166.88 20.0483 168.735 22.0809 168.981 24.7523C169.283 28.0187 168.01 30.5995 165.224 31.7751C161.387 33.3922 157.499 33.3372 153.743 31.4824C151.856 30.5542 150.706 28.9631 150.242 26.8221C152.165 26.4308 154.057 26.0314 155.957 25.6805C156.146 25.6449 156.487 25.8535 156.594 26.0411C157.53 27.7099 159.828 28.3664 161.51 27.4042C162.318 26.9385 162.642 26.2076 162.592 25.3021C162.537 24.3577 161.987 23.7238 161.136 23.4506C160.464 23.2629 159.771 23.1639 159.073 23.1563C158.049 23.1094 157.029 23.1433 155.907 23.1433Z" fill="url(#paint0_linear_1789_9101)"/>
<path d="M93.3733 22.2321C93.5237 20.172 93.8407 17.7901 95.5628 15.8755C96.4521 14.8968 97.5976 14.1865 98.8697 13.8251C100.855 13.2203 102.89 13.2866 104.838 13.61C107.183 13.9981 109.043 15.3693 110.013 17.6672C110.863 19.6755 111.031 21.7631 110.857 23.9381C110.716 25.7039 110.372 27.3452 109.319 28.7892C108.134 30.4257 106.538 31.3134 104.544 31.6999C102.852 32.0268 101.111 32.001 99.4292 31.6239C97.1896 31.1388 95.49 29.8451 94.4778 27.7931C93.6838 26.1809 93.362 24.4183 93.3733 22.2321ZM105.922 22.6751C105.817 22.0946 105.681 21.5432 105.622 20.9918C105.388 18.7118 104.798 17.9744 102.62 17.4812C102.156 17.3761 101.636 17.5152 101.143 17.5523C100.215 17.6203 99.6588 18.2784 99.3047 18.985C98.5058 20.5859 98.3765 22.3388 98.6578 24.0804C98.9279 25.7847 99.3887 27.3856 101.502 27.7656C102.658 27.9726 103.627 27.7527 104.5 27.0218C105.884 25.8623 105.488 24.1434 105.922 22.6751Z" fill="url(#paint1_linear_1789_9101)"/>
<path d="M114.238 13.5531C115.609 13.5531 116.901 13.5854 118.192 13.5401C118.903 13.5159 118.976 13.9008 118.976 14.4441C118.976 17.1931 118.945 19.942 118.989 22.691C119.007 23.7825 119.181 24.8692 119.291 25.9574C119.453 27.5324 121.405 28.0968 122.395 27.8122C124.089 27.3271 124.497 26.8064 124.524 25.026C124.565 21.606 124.548 18.1843 124.557 14.7643C124.557 13.6792 124.681 13.5579 125.755 13.5563C126.751 13.5563 127.749 13.5709 128.745 13.5563C129.356 13.545 129.636 13.8167 129.636 14.4182C129.636 17.8657 129.728 21.3181 129.59 24.7673C129.508 26.787 129.02 28.7954 127.318 30.186C125.241 31.8823 122.8 32.175 120.239 31.8467C118.582 31.6349 117.057 31.1094 115.873 29.8384C114.861 28.7501 114.228 27.429 114.191 25.9979C114.088 22.041 114.141 18.0744 114.138 14.1207C114.154 13.9289 114.188 13.7389 114.238 13.5531Z" fill="url(#paint2_linear_1789_9101)"/>
<path d="M82.9713 31.6266H78.1412V30.8326C78.1412 25.4187 78.1525 19.9984 78.125 14.5893C78.125 13.7954 78.3271 13.5027 79.168 13.5334C80.9467 13.5997 82.7255 13.4671 84.5042 13.5884C85.7539 13.6821 86.9875 13.9269 88.1782 14.3177C89.7208 14.8174 90.7218 16.056 91.0274 17.576C91.5724 20.2862 91.2134 23.2357 88.4256 24.7719C87.3988 25.3379 86.1181 25.4785 84.9344 25.7162C84.3442 25.8343 83.7087 25.7373 82.9778 25.7373V31.6266H82.9713ZM83.133 17.4839C83.0767 17.5978 83.0302 17.7162 82.9939 17.838C82.9864 18.6454 82.981 19.454 82.9778 20.2636C82.9778 21.7836 83.0295 21.8305 84.5625 21.651C84.6167 21.649 84.6707 21.6436 84.7242 21.6348C85.5602 21.3987 86.2345 20.7066 86.3056 20.0178C86.401 19.1122 86.3833 18.239 85.295 17.8267C84.6207 17.5728 83.8477 17.589 83.1281 17.4839H83.133Z" fill="url(#paint3_linear_1789_9101)"/>
<path d="M180.69 20.2946L183.059 15.2219C183.239 14.837 183.383 14.4134 183.617 14.0786C183.779 13.849 184.086 13.5935 184.337 13.5806C185.839 13.5337 187.344 13.5579 189 13.5579C188.943 13.7892 188.868 14.0157 188.776 14.2355C186.966 17.6313 185.142 21.0109 183.342 24.4067C183.188 24.7118 183.107 25.0482 183.105 25.3899C183.084 27.4338 183.093 29.4794 183.093 31.5912H178.242V29.1802C178.242 28.48 178.177 27.7718 178.255 27.0781C178.456 25.2896 177.797 23.8197 176.884 22.3239C175.741 20.4482 174.833 18.4269 173.821 16.4702C173.354 15.5663 172.877 14.6672 172.293 13.5595C173.472 13.5595 174.437 13.6582 175.365 13.5369C176.945 13.3299 177.915 13.8231 178.477 15.3965C179.059 16.999 179.877 18.5142 180.69 20.2946Z" fill="url(#paint4_linear_1789_9101)"/>
<path d="M138.206 27.632C140.277 27.632 142.215 27.6562 144.149 27.6207C144.928 27.6061 145.211 27.9247 145.185 28.6669C145.158 29.4754 145.211 30.2839 145.156 31.0925C145.143 31.2914 144.845 31.6309 144.671 31.6326C140.935 31.6649 137.2 31.6568 133.395 31.6568C133.379 31.3108 133.356 31.0245 133.356 30.7383C133.356 25.3552 133.368 19.9704 133.342 14.5873C133.342 13.8111 133.504 13.4553 134.367 13.5394C135.307 13.6114 136.251 13.6114 137.19 13.5394C137.967 13.4925 138.222 13.7577 138.216 14.5436C138.183 18.5539 138.201 22.5658 138.201 26.576L138.206 27.632Z" fill="url(#paint5_linear_1789_9101)"/>
<path d="M33.4699 12.0924C30.7036 12.0924 27.9363 12.1032 25.169 12.087C23.8829 12.0806 23.1111 11.1319 23.4442 9.98163C23.6102 9.3995 23.9983 8.992 24.6246 8.89282C24.944 8.84554 25.2666 8.82355 25.5894 8.82706C30.7453 8.82203 35.9015 8.82203 41.0581 8.82706C41.5713 8.82706 41.8483 8.688 42.0499 8.16299C43.2239 5.11109 45.3648 2.92376 48.3025 1.56113C49.3439 1.07818 50.4844 0.841007 51.6444 0.667444C52.8689 0.49194 54.115 0.536847 55.3237 0.800043C57.0981 1.16981 58.8187 1.83064 60.2104 3.05421C61.0567 3.79805 61.7703 4.69066 62.5519 5.50888C62.7133 5.65931 62.8843 5.79903 63.064 5.92716C63.2052 5.74282 63.3874 5.57464 63.4822 5.36982C64.0385 4.23788 64.5861 3.10595 65.1165 1.95893C65.3817 1.38649 65.6674 0.897066 66.3369 0.674991C67.0322 0.443215 67.5421 0.656665 68.0143 1.11698C68.5253 1.61611 68.5899 2.24137 68.3194 2.84183C67.6035 4.44379 66.836 6.0231 66.0846 7.60889C65.8205 8.16731 65.5359 8.71495 65.275 9.27444C65.1413 9.56228 65.2836 9.74878 65.5499 9.8706L71.5944 12.6411C72.4568 13.0379 72.9085 13.6566 72.8514 14.4339C72.7889 15.305 72.0192 16.2385 70.8517 15.8429C69.7672 15.4764 68.7322 14.9546 67.6866 14.4781C66.5266 13.9488 65.3806 13.3861 64.2218 12.8546C63.9059 12.7101 63.6558 12.7813 63.4865 13.1457C62.3632 15.5723 61.2151 17.9892 60.0907 20.4148C58.8984 22.9848 57.7288 25.5646 56.5397 28.1357C55.7139 29.9241 54.8903 31.7147 54.0279 33.486C53.6722 34.2169 53.0243 34.5478 52.1953 34.5467C47.5777 34.5403 42.9605 34.5381 38.3436 34.5403C35.0204 34.5403 31.6965 34.5428 28.3718 34.5478C27.3962 34.5478 26.771 34.1317 26.3548 33.2143C25.2768 30.8426 24.1136 28.5065 23.013 26.1435C21.8142 23.5724 20.6564 20.9819 19.4641 18.4075C18.7094 16.7819 17.9257 15.1734 17.1592 13.551C16.3324 11.8046 16.8003 12.1075 14.7951 12.0946C10.8064 12.0698 6.81769 12.0795 2.82898 12.059C2.43972 12.0528 2.05311 11.9937 1.67979 11.8833C0.994166 11.6882 0.680459 10.7169 0.765624 10.1789C0.820029 9.84235 0.982907 9.53277 1.22947 9.2973C1.47603 9.06183 1.79277 8.91336 2.13149 8.8745C2.45322 8.83349 2.7774 8.81476 3.10172 8.81844C7.66502 8.81844 12.2283 8.84 16.7927 8.81089C18.8151 8.79796 18.7871 9.29924 19.4759 10.6328C20.0602 11.7647 20.5475 12.9473 21.0757 14.1083C21.7139 15.5098 22.3456 16.9112 22.9892 18.3127C23.2081 18.8189 23.4602 19.3101 23.7439 19.7831C23.8376 19.9329 24.1298 20.0246 24.3335 20.0278C25.5905 20.0483 26.8486 20.0364 28.1066 20.0354C31.3594 20.0354 34.6115 20.0354 37.8628 20.0354C40.1978 20.0354 41.8925 18.9735 42.8466 16.8519C43.5009 15.3987 43.3349 13.9359 42.6116 12.5226C42.4229 12.1539 42.1448 12.0913 41.7772 12.0913C39.0099 12.1 36.2436 12.0913 33.4763 12.0913L33.4699 12.0924ZM25.4439 23.4236C25.5722 23.76 25.6401 23.9799 25.7371 24.1858C26.7634 26.3418 27.8242 28.4904 28.8009 30.6734C29.0025 31.1229 29.2397 31.2124 29.6321 31.221C29.866 31.221 30.0999 31.221 30.3328 31.221C37.0884 31.221 43.8441 31.221 50.5998 31.221C50.8146 31.2332 51.0301 31.211 51.238 31.1552C51.3987 31.0975 51.5323 30.9823 51.6131 30.8318C52.4755 28.9992 53.3024 27.1568 54.1594 25.3242C55.4649 22.531 56.7877 19.7454 58.1007 16.9543C59.0709 14.9061 60.0412 12.8481 60.9877 10.7869C61.0955 10.5433 61.1979 10.2134 61.1267 9.97517C60.5877 8.17701 59.6067 6.66777 58.0867 5.52721C55.7603 3.78188 53.1547 3.48758 50.4596 4.27346C48.2098 4.93429 46.5367 6.41874 45.4683 8.53492C44.828 9.80592 44.8711 9.77789 45.5158 11.0284C45.9103 11.7938 46.2704 12.6293 46.39 13.4691C46.569 14.7368 46.5863 16.0272 46.1885 17.3004C45.6361 19.1273 44.4813 20.7134 42.9123 21.8001C41.4031 22.8684 39.7257 23.2996 37.8887 23.2878C34.0078 23.2608 30.1269 23.2781 26.246 23.2878C25.9872 23.2878 25.7285 23.3729 25.4439 23.4236Z" fill="url(#paint6_linear_1789_9101)"/>
<path d="M33.0327 42.8115C31.6851 42.9031 30.979 41.8261 30.9984 40.7772C31.0189 39.6992 31.7919 38.729 33.0327 38.7667C34.2358 38.8001 35.0745 39.6 35.0809 40.8042C35.0874 42.0083 34.2573 42.8072 33.0327 42.8115Z" fill="url(#paint7_linear_1789_9101)"/>
<path d="M47.4 42.8139C46.2142 42.9444 45.3873 41.7273 45.4251 40.7786C45.466 39.7502 46.2336 38.6991 47.6049 38.7519C48.671 38.7918 49.5453 39.8472 49.5302 40.8487C49.5205 41.7628 48.7023 42.9853 47.4 42.8139Z" fill="url(#paint8_linear_1789_9101)"/>
<path d="M53.0282 8.39071C54.1839 8.38532 55.0765 9.28656 55.0894 10.4519C55.0856 10.9983 54.8679 11.5215 54.483 11.9093C54.0982 12.2972 53.5767 12.519 53.0304 12.5271C52.002 12.5271 51.0328 11.7725 51.0015 10.4789C50.9909 10.207 51.0355 9.93575 51.1328 9.68163C51.2301 9.42752 51.378 9.19581 51.5675 9.00056C51.757 8.8053 51.9842 8.65057 52.2353 8.54574C52.4864 8.44091 52.7562 8.38817 53.0282 8.39071Z" fill="url(#paint9_linear_1789_9101)"/>
<defs>
<linearGradient id="paint0_linear_1789_9101" x1="159.633" y1="10.0937" x2="159.633" y2="32.934" gradientUnits="userSpaceOnUse">
<stop stop-color="#FCB376"/>
<stop offset="1" stop-color="#FE8A29"/>
</linearGradient>
<linearGradient id="paint1_linear_1789_9101" x1="102.146" y1="13.3672" x2="102.146" y2="31.9273" gradientUnits="userSpaceOnUse">
<stop stop-color="#FCB376"/>
<stop offset="1" stop-color="#FE8A29"/>
</linearGradient>
<linearGradient id="paint2_linear_1789_9101" x1="121.896" y1="13.5391" x2="121.896" y2="31.9652" gradientUnits="userSpaceOnUse">
<stop stop-color="#FCB376"/>
<stop offset="1" stop-color="#FE8A29"/>
</linearGradient>
<linearGradient id="paint3_linear_1789_9101" x1="84.6839" y1="13.5312" x2="84.6839" y2="31.6266" gradientUnits="userSpaceOnUse">
<stop stop-color="#FCB376"/>
<stop offset="1" stop-color="#FE8A29"/>
</linearGradient>
<linearGradient id="paint4_linear_1789_9101" x1="180.647" y1="13.4922" x2="180.647" y2="31.5912" gradientUnits="userSpaceOnUse">
<stop stop-color="#FCB376"/>
<stop offset="1" stop-color="#FE8A29"/>
</linearGradient>
<linearGradient id="paint5_linear_1789_9101" x1="139.264" y1="13.5273" x2="139.264" y2="31.6577" gradientUnits="userSpaceOnUse">
<stop stop-color="#FCB376"/>
<stop offset="1" stop-color="#FE8A29"/>
</linearGradient>
<linearGradient id="paint6_linear_1789_9101" x1="36.8041" y1="0.5625" x2="36.8041" y2="34.5478" gradientUnits="userSpaceOnUse">
<stop stop-color="#FCB376"/>
<stop offset="1" stop-color="#FE8A29"/>
</linearGradient>
<linearGradient id="paint7_linear_1789_9101" x1="33.0395" y1="38.7656" x2="33.0395" y2="42.8169" gradientUnits="userSpaceOnUse">
<stop stop-color="#FCB376"/>
<stop offset="1" stop-color="#FE8A29"/>
</linearGradient>
<linearGradient id="paint8_linear_1789_9101" x1="47.4771" y1="38.75" x2="47.4771" y2="42.8302" gradientUnits="userSpaceOnUse">
<stop stop-color="#FCB376"/>
<stop offset="1" stop-color="#FE8A29"/>
</linearGradient>
<linearGradient id="paint9_linear_1789_9101" x1="53.0447" y1="8.39062" x2="53.0447" y2="12.5271" gradientUnits="userSpaceOnUse">
<stop stop-color="#FCB376"/>
<stop offset="1" stop-color="#FE8A29"/>
</linearGradient>
</defs>
</svg>
