<svg width="83" height="83" viewBox="0 0 83 83" fill="none" xmlns="http://www.w3.org/2000/svg">
<circle cx="41.2503" cy="41.2503" r="30" transform="rotate(-30 41.2503 41.2503)" fill="url(#paint0_linear_1789_9140)"/>
<mask id="mask0_1789_9140" style="mask-type:alpha" maskUnits="userSpaceOnUse" x="10" y="10" width="61" height="61">
<circle cx="40.9808" cy="40.9808" r="30" transform="rotate(-30 40.9808 40.9808)" fill="url(#paint1_linear_1789_9140)"/>
</mask>
<g mask="url(#mask0_1789_9140)">
<circle cx="14.7308" cy="17.7308" r="26.25" transform="rotate(-30 14.7308 17.7308)" stroke="white" stroke-opacity="0.2" stroke-width="7.5"/>
</g>
<path d="M47.5 37.5H36.25V35H47.5V37.5ZM35 35H32.5V37.5H35V35ZM35 31.25H32.5V33.75H35V31.25ZM38.75 31.25H36.25V33.75H38.75V31.25ZM42.5 47.5V50H43.75C44.4375 50 45 50.5625 45 51.25H53.75V53.75H45C45 54.4375 44.4375 55 43.75 55H38.75C38.0625 55 37.5 54.4375 37.5 53.75H28.75V51.25H37.5C37.5 50.5625 38.0625 50 38.75 50H40V47.5H31.25C29.8625 47.5 28.75 46.3875 28.75 45V30C28.75 29.337 29.0134 28.7011 29.4822 28.2322C29.9511 27.7634 30.587 27.5 31.25 27.5H51.25C52.6375 27.5 53.75 28.6125 53.75 30V45C53.75 46.3875 52.6375 47.5 51.25 47.5H42.5ZM51.25 45V30H31.25V45H51.25ZM40 33.75H50V31.25H40V33.75ZM32.5 41.25H40V38.75H32.5V41.25ZM42.5 43.75H50V41.25H42.5V43.75Z" fill="white"/>
<defs>
<linearGradient id="paint0_linear_1789_9140" x1="41.2503" y1="11.2503" x2="41.2503" y2="71.2503" gradientUnits="userSpaceOnUse">
<stop stop-color="#F37AA3"/>
<stop offset="1" stop-color="#8D475F"/>
</linearGradient>
<linearGradient id="paint1_linear_1789_9140" x1="40.9808" y1="10.9808" x2="40.9808" y2="70.9808" gradientUnits="userSpaceOnUse">
<stop stop-color="#7583FE"/>
<stop offset="1" stop-color="#464E98"/>
</linearGradient>
</defs>
</svg>
