<svg width="150" height="150" viewBox="0 0 150 150" fill="none" xmlns="http://www.w3.org/2000/svg">
<circle cx="75.2454" cy="75.2452" r="54.7239" transform="rotate(-30 75.2454 75.2452)" fill="url(#paint0_linear_2751_6694)"/>
<mask id="mask0_2751_6694" style="mask-type:alpha" maskUnits="userSpaceOnUse" x="20" y="20" width="110" height="110">
<circle cx="74.7542" cy="74.753" r="54.7239" transform="rotate(-30 74.7542 74.753)" fill="url(#paint1_linear_2751_6694)"/>
</mask>
<g mask="url(#mask0_2751_6694)">
<circle cx="26.8704" cy="32.3428" r="50.9739" transform="rotate(-30 26.8704 32.3428)" stroke="white" stroke-opacity="0.2" stroke-width="7.5"/>
</g>
<path d="M86.6467 68.4053H66.1253V63.845H86.6467V68.4053ZM63.8451 63.845H59.2848V68.4053H63.8451V63.845ZM63.8451 57.0045H59.2848V61.5649H63.8451V57.0045ZM70.6856 57.0045H66.1253V61.5649H70.6856V57.0045ZM77.5261 86.6466V91.207H79.8063C81.0603 91.207 82.0864 92.233 82.0864 93.4871H98.0475V98.0474H82.0864C82.0864 99.3015 81.0603 100.328 79.8063 100.328H70.6856C69.4315 100.328 68.4055 99.3015 68.4055 98.0474H52.4443V93.4871H68.4055C68.4055 92.233 69.4315 91.207 70.6856 91.207H72.9658V86.6466H57.0047C54.4737 86.6466 52.4443 84.6173 52.4443 82.0863V54.7244C52.4443 53.5149 52.9248 52.355 53.78 51.4997C54.6352 50.6445 55.7952 50.1641 57.0047 50.1641H93.4872C96.0182 50.1641 98.0475 52.1934 98.0475 54.7244V82.0863C98.0475 84.6173 96.0182 86.6466 93.4872 86.6466H77.5261ZM93.4872 82.0863V54.7244H57.0047V82.0863H93.4872ZM72.9658 61.5649H91.2071V57.0045H72.9658V61.5649ZM59.2848 75.2458H72.9658V70.6855H59.2848V75.2458ZM77.5261 79.8061H91.2071V75.2458H77.5261V79.8061Z" fill="white"/>
<defs>
<linearGradient id="paint0_linear_2751_6694" x1="75.2454" y1="20.5213" x2="75.2454" y2="129.969" gradientUnits="userSpaceOnUse">
<stop stop-color="#F37AA3"/>
<stop offset="1" stop-color="#8D475F"/>
</linearGradient>
<linearGradient id="paint1_linear_2751_6694" x1="74.7542" y1="20.0291" x2="74.7542" y2="129.477" gradientUnits="userSpaceOnUse">
<stop stop-color="#7583FE"/>
<stop offset="1" stop-color="#464E98"/>
</linearGradient>
</defs>
</svg>
