<svg width="25" height="25" viewBox="0 0 25 25" fill="none" xmlns="http://www.w3.org/2000/svg">
<path d="M14.5833 12.5013L10.9375 14.5846V10.418L14.5833 12.5013Z" fill="#ACADAE" stroke="#ACADAE" stroke-width="1.875" stroke-linecap="round" stroke-linejoin="round"/>
<path d="M2.08301 13.2388V11.7638C2.08301 8.74818 2.08301 7.23984 3.02572 6.27005C3.96947 5.29922 5.45488 5.25755 8.42468 5.17318C9.83093 5.13359 11.2684 5.10547 12.4997 5.10547C13.7309 5.10547 15.1674 5.13359 16.5747 5.17318C19.5445 5.25755 21.0299 5.29922 21.9726 6.27005C22.9153 7.24089 22.9163 8.74922 22.9163 11.7638V13.2378C22.9163 16.2544 22.9163 17.7617 21.9736 18.7326C21.0299 19.7023 19.5455 19.7451 16.5747 19.8284C15.1684 19.869 13.7309 19.8971 12.4997 19.8971C11.2684 19.8971 9.83197 19.869 8.42468 19.8284C5.45488 19.7451 3.96947 19.7034 3.02572 18.7326C2.08197 17.7617 2.08301 16.2534 2.08301 13.2388Z" stroke="#ACADAE" stroke-width="1.875"/>
</svg>
