<svg width="25" height="25" viewBox="0 0 25 25" fill="none" xmlns="http://www.w3.org/2000/svg">
<path d="M19.8441 5.11334C18.8889 4.14886 17.7514 3.38414 16.4977 2.86371C15.2441 2.34329 13.8994 2.07759 12.542 2.08209C6.85449 2.08209 2.21908 6.7175 2.21908 12.405C2.21908 14.2279 2.69824 15.9988 3.59408 17.5613L2.13574 22.9154L7.60449 21.4779C9.11491 22.3008 10.8128 22.7383 12.542 22.7383C18.2295 22.7383 22.8649 18.1029 22.8649 12.4154C22.8649 9.655 21.792 7.06125 19.8441 5.11334ZM12.542 20.9883C11.0003 20.9883 9.48991 20.5717 8.16699 19.7904L7.85449 19.6029L4.60449 20.4571L5.46908 17.2904L5.26074 16.9675C4.40402 15.5999 3.94921 14.0188 3.94824 12.405C3.94824 7.67584 7.80241 3.82167 12.5316 3.82167C14.8232 3.82167 16.9795 4.7175 18.5941 6.3425C19.3937 7.1382 20.0273 8.08474 20.4583 9.12722C20.8892 10.1697 21.1089 11.2874 21.1045 12.4154C21.1253 17.1446 17.2712 20.9883 12.542 20.9883ZM17.2503 14.5717C16.9899 14.4467 15.7191 13.8217 15.4899 13.7279C15.2503 13.6446 15.0837 13.6029 14.9066 13.8529C14.7295 14.1133 14.2399 14.6967 14.0941 14.8633C13.9482 15.0404 13.792 15.0613 13.5316 14.9258C13.2712 14.8008 12.4378 14.5196 11.4587 13.6446C10.6878 12.9571 10.1774 12.1133 10.0212 11.8529C9.87532 11.5925 10.0003 11.4571 10.1357 11.3217C10.2503 11.2071 10.3962 11.0196 10.5212 10.8738C10.6462 10.7279 10.6982 10.6133 10.7816 10.4467C10.8649 10.2696 10.8232 10.1238 10.7607 9.99875C10.6982 9.87375 10.1774 8.60292 9.96907 8.08209C9.76074 7.58209 9.54199 7.64459 9.38574 7.63417H8.88574C8.70866 7.63417 8.43783 7.69667 8.19824 7.95709C7.96908 8.2175 7.30241 8.8425 7.30241 10.1133C7.30241 11.3842 8.22949 12.6133 8.35449 12.78C8.47949 12.9571 10.1774 15.5613 12.7607 16.6758C13.3753 16.9467 13.8545 17.1029 14.2295 17.2175C14.8441 17.4154 15.4066 17.3842 15.8545 17.3217C16.3545 17.2488 17.3857 16.6967 17.5941 16.0925C17.8128 15.4883 17.8128 14.9779 17.7399 14.8633C17.667 14.7488 17.5107 14.6967 17.2503 14.5717Z" fill="#ACADAE"/>
</svg>
